<?xml version="1.0" standalone="no"?>
<!DOCTYPE svg PUBLIC "-//W3C//DTD SVG 20010904//EN"
 "http://www.w3.org/TR/2001/REC-SVG-20010904/DTD/svg10.dtd">
<svg version="1.0" xmlns="http://www.w3.org/2000/svg"
 width="500.000000pt" height="500.000000pt" viewBox="0 0 500.000000 500.000000"
 preserveAspectRatio="xMidYMid meet">

<g transform="translate(0.000000,500.000000) scale(0.100000,-0.100000)"
fill="#000000" stroke="none">
<path d="M2830 4113 c-37 -7 -85 -47 -104 -86 -24 -52 -21 -141 8 -203 13 -28
29 -55 35 -58 15 -10 14 -5 -14 56 -69 147 11 284 145 248 47 -13 121 -78 221
-196 72 -84 127 -124 171 -124 22 1 22 1 3 12 -34 19 -75 60 -151 154 -80 99
-137 155 -181 177 -32 16 -97 26 -133 20z"/>
<path d="M3292 3936 c51 -28 87 -79 109 -153 13 -46 33 -49 23 -5 -22 104 -73
169 -140 178 l-39 5 47 -25z"/>
<path d="M3117 3732 c-44 -49 5 -112 85 -112 18 0 62 9 98 21 82 26 119 19
159 -27 38 -42 31 -63 -29 -94 -49 -25 -81 -25 -148 0 -66 25 -108 25 -151 -1
-41 -25 -37 -32 11 -17 32 10 43 7 109 -23 112 -52 202 -44 276 24 54 49 33
141 -41 177 -54 26 -74 25 -177 -5 -102 -30 -150 -32 -172 -7 -22 25 -21 37 5
62 16 15 18 20 6 20 -8 0 -22 -8 -31 -18z"/>
<path d="M2821 3689 c-1 -68 -34 -163 -87 -254 -110 -191 -108 -185 -90 -222
11 -23 30 -40 57 -52 34 -16 37 -19 20 -24 -29 -7 -26 -25 4 -33 35 -9 58 2
51 24 -6 16 4 20 91 30 105 12 114 10 171 -40 26 -22 37 -26 52 -18 31 17 32
28 3 44 -16 7 -36 23 -47 35 -35 39 -76 44 -192 26 -115 -18 -144 -15 -175 16
l-20 20 32 32 c18 18 56 82 86 143 58 120 72 191 55 274 l-10 45 -1 -46z"/>
<path d="M3204 3445 c-51 -77 -73 -295 -29 -295 18 0 22 17 30 116 4 44 15
104 25 134 10 30 16 58 14 62 -9 14 -23 8 -40 -17z"/>
<path d="M1936 3425 c27 -84 27 -94 0 -198 -42 -165 -34 -282 24 -332 l23 -20
-8 20 c-28 71 -34 96 -34 145 0 30 6 84 14 120 21 96 19 196 -5 245 -11 22
-17 31 -14 20z"/>
<path d="M1882 3305 c-1 -33 -12 -72 -32 -110 -32 -65 -37 -114 -18 -176 18
-62 28 -46 28 45 0 53 6 97 15 121 11 24 15 59 12 103 -3 57 -3 60 -5 17z"/>
<path d="M2028 3203 c-46 -52 -47 -107 -7 -198 12 -28 26 -63 30 -80 l7 -30 1
30 c1 17 -8 54 -19 83 -25 66 -25 118 0 160 30 49 22 73 -12 35z"/>
<path d="M2881 3116 c-14 -17 -11 -19 63 -54 30 -14 53 -19 59 -13 5 5 3 13
-5 20 -81 67 -96 73 -117 47z"/>
<path d="M3160 3052 c0 -6 5 -14 11 -18 7 -4 9 -23 5 -53 l-6 -46 21 32 c11
18 19 40 17 49 -4 19 -48 52 -48 36z"/>
<path d="M2569 2854 l-34 -35 -17 21 c-20 24 -38 19 -38 -11 0 -33 19 -59 43
-59 28 0 47 14 76 58 27 39 48 41 62 6 11 -31 24 -26 14 5 -9 28 -33 51 -54
51 -9 0 -33 -16 -52 -36z"/>
<path d="M1912 2864 c-39 -27 -23 -84 23 -84 23 0 55 28 55 48 0 13 -36 52
-48 52 -4 0 -18 -7 -30 -16z"/>
<path d="M3365 2806 c-53 -24 -119 -89 -174 -169 -51 -75 -95 -179 -141 -337
-23 -80 -58 -179 -78 -220 -49 -100 -150 -203 -247 -251 -63 -31 -78 -34 -155
-34 -70 1 -97 6 -153 29 -143 60 -260 156 -391 324 -80 101 -65 62 24 -63 100
-142 156 -200 247 -259 115 -74 163 -90 278 -90 98 -1 103 0 180 38 98 48 214
160 261 251 18 33 62 155 98 272 101 323 155 427 249 472 103 50 170 12 248
-141 16 -32 32 -58 35 -58 10 0 -6 72 -27 120 -36 82 -110 140 -176 140 -15 0
-50 -11 -78 -24z"/>
<path d="M2694 2804 c-19 -15 -19 -16 1 -9 58 19 81 17 92 -8 17 -36 72 -96
104 -113 42 -21 111 -18 143 7 33 26 36 54 4 42 -46 -16 -94 -8 -133 22 -85
68 -99 75 -145 75 -27 0 -54 -7 -66 -16z"/>
<path d="M1855 2735 c-114 -20 -222 -71 -281 -130 -28 -29 -56 -66 -63 -84
-15 -35 -27 -37 -96 -16 -49 14 -67 13 -49 -4 14 -13 185 -50 267 -58 69 -6
71 -7 120 -59 61 -65 118 -95 186 -96 70 0 118 27 159 88 l34 51 141 22 c141
22 206 45 176 61 -8 5 -75 -1 -149 -12 -215 -32 -780 -38 -780 -8 0 19 94 122
133 144 23 13 80 36 127 51 70 22 104 27 190 27 129 0 183 -18 308 -103 48
-32 92 -59 99 -59 53 0 -63 97 -179 149 -114 52 -206 61 -343 36z m220 -346
c-22 -22 -52 -47 -67 -55 -62 -32 -170 -7 -240 56 l-43 39 195 1 194 0 -39
-41z"/>
<path d="M2645 2573 c-30 -45 -33 -88 -6 -103 11 -5 49 -10 86 -10 59 0 71 -4
118 -35 28 -19 62 -35 74 -35 27 0 103 84 103 115 0 35 -19 43 -115 47 -77 3
-96 7 -132 31 -61 39 -96 36 -128 -10z"/>
<path d="M2720 2327 c-36 -18 -36 -75 1 -96 24 -13 29 -13 53 2 34 22 36 69 4
91 -27 19 -26 19 -58 3z"/>
<path d="M2612 2128 c-17 -17 -15 -32 9 -54 27 -24 54 -8 54 32 0 24 -5 30
-25 32 -14 2 -31 -3 -38 -10z"/>
<path d="M2513 1999 c-15 -15 -5 -39 17 -39 22 0 32 24 17 39 -6 6 -14 11 -17
11 -3 0 -11 -5 -17 -11z"/>
<path d="M1888 1556 c-63 -23 -125 -64 -166 -111 -42 -48 -53 -79 -41 -113 14
-37 48 -27 106 33 69 71 68 87 -2 30 -54 -43 -75 -54 -75 -37 0 15 85 90 142
126 63 40 127 60 113 35 -25 -42 -81 -100 -101 -105 -12 -3 -21 -11 -18 -18 8
-21 -178 -172 -241 -196 -23 -9 -26 -13 -15 -20 8 -6 25 -10 36 -10 32 0 130
69 204 144 54 55 70 66 98 66 l34 0 -46 -51 c-48 -53 -60 -80 -54 -120 4 -34
39 -36 85 -5 37 25 38 25 45 6 10 -28 27 -25 78 12 24 18 41 27 36 20 -8 -14
1 -52 13 -52 5 0 29 16 55 36 43 33 46 34 41 12 -3 -13 0 -31 8 -42 18 -25 50
-17 111 29 46 36 47 36 40 11 -5 -21 -3 -26 13 -26 10 0 30 8 43 17 23 15 22
14 -5 -18 -19 -22 -45 -40 -71 -47 -56 -15 -126 -84 -122 -120 4 -35 37 -41
79 -14 43 27 280 326 262 330 -7 2 -31 -12 -53 -31 -46 -43 -89 -71 -95 -65
-3 2 11 24 31 47 34 39 40 67 10 46 -82 -59 -201 -133 -207 -129 -14 8 9 44
69 106 52 55 55 57 120 63 118 12 129 24 34 40 -35 6 -42 10 -37 25 10 31 -13
32 -40 2 -23 -25 -36 -30 -97 -36 -122 -13 -139 -31 -38 -43 l51 -6 -23 -24
c-29 -31 -139 -105 -146 -98 -3 2 12 25 33 51 37 44 38 47 20 60 -35 25 -46
21 -175 -66 -47 -31 -95 -62 -107 -69 -44 -23 -25 24 37 92 l60 65 68 7 c116
11 133 27 42 39 -52 7 -59 13 -38 34 9 9 7 12 -9 12 -12 0 -30 -11 -40 -24
-13 -16 -32 -25 -61 -28 -23 -2 -42 -2 -42 1 0 2 8 18 19 35 25 41 32 68 23
83 -12 19 -55 23 -94 9z m252 -247 c-19 -16 -48 -39 -64 -51 -28 -21 -28 -21
-17 -1 14 27 82 82 101 82 9 0 1 -12 -20 -30z m210 -189 c-23 -32 -91 -92 -98
-85 -12 12 86 115 109 115 6 0 1 -13 -11 -30z"/>
<path d="M3370 1429 c-56 -65 -111 -119 -134 -131 -37 -19 -38 -19 -31 -1 5
10 9 31 9 48 1 29 -4 32 -54 26 -5 0 -27 -16 -47 -35 -21 -18 -48 -38 -60 -45
-22 -11 -22 -11 -7 25 25 60 -18 79 -82 37 -17 -11 -28 -12 -37 -5 -7 6 -36
12 -64 14 l-52 3 39 42 40 42 107 9 108 8 -49 24 c-46 21 -58 22 -155 16 -59
-4 -122 -8 -141 -9 -40 -3 -100 -25 -100 -38 0 -21 42 -29 112 -21 l72 9 -52
-47 c-30 -26 -67 -51 -84 -54 -25 -5 -29 -10 -25 -27 4 -14 -3 -33 -17 -53
-31 -42 -38 -66 -25 -82 16 -20 23 -18 37 15 7 15 27 45 45 65 29 34 39 38
115 50 45 7 82 11 82 9 0 -3 -8 -17 -18 -31 -61 -88 -3 -139 77 -67 45 41 70
46 64 12 -11 -55 51 -59 111 -7 57 50 74 37 24 -19 -49 -58 -88 -127 -88 -156
0 -12 6 -30 14 -40 13 -18 14 -18 47 1 52 30 99 98 99 142 0 33 4 39 43 60 42
22 169 131 154 132 -5 0 -27 -13 -50 -28 -61 -42 -137 -85 -137 -78 0 3 56 67
125 142 69 74 123 140 120 145 -15 24 -47 -1 -135 -102z m-356 -113 c-6 -16
-24 -23 -24 -8 0 10 22 33 27 28 2 -2 1 -11 -3 -20z m166 -1 c-7 -9 -15 -13
-18 -10 -3 2 1 11 8 20 7 9 15 13 18 10 3 -2 -1 -11 -8 -20z m-205 -32 c4 -13
-2 -25 -22 -42 -23 -20 -29 -22 -31 -8 -3 17 25 67 38 67 4 0 11 -8 15 -17z
m169 -18 c-5 -13 -47 -45 -59 -45 -10 0 -5 15 15 48 17 27 24 31 35 22 8 -6
11 -18 9 -25z m86 -86 c0 -18 -64 -119 -75 -119 -2 0 -11 -3 -20 -6 -16 -6
-16 -4 0 27 24 47 77 119 87 119 4 0 8 -10 8 -21z"/>
<path d="M2320 890 c0 -28 -2 -30 -21 -20 -28 15 -69 -11 -69 -45 0 -36 25
-55 71 -53 l39 1 0 74 c0 42 -4 73 -10 73 -5 0 -10 -14 -10 -30z m-10 -45 c6
-8 9 -23 5 -35 -10 -31 -59 -24 -63 9 -6 37 34 55 58 26z"/>
<path d="M2860 910 c0 -5 5 -10 10 -10 6 0 10 5 10 10 0 6 -4 10 -10 10 -5 0
-10 -4 -10 -10z"/>
<path d="M3062 845 c0 -54 2 -73 8 -59 13 34 28 37 46 9 9 -14 23 -25 31 -25
11 0 7 9 -12 31 l-26 32 22 23 c12 13 18 24 12 24 -5 0 -20 -11 -33 -25 -13
-14 -27 -25 -31 -25 -4 0 -10 21 -12 48 -2 29 -4 17 -5 -33z"/>
<path d="M1860 840 c0 -40 4 -70 10 -70 6 0 10 13 10 29 0 27 4 30 38 34 l37
4 -37 1 c-33 2 -38 5 -38 27 0 23 4 25 40 25 22 0 40 5 40 10 0 6 -22 10 -50
10 l-50 0 0 -70z"/>
<path d="M2445 899 c-4 -5 -4 -21 -1 -35 4 -13 2 -24 -3 -24 -16 0 -23 -40
-10 -56 8 -10 27 -14 59 -12 44 3 47 5 46 31 -1 19 -5 26 -15 22 -7 -3 -20 0
-28 6 -11 10 -11 15 3 30 14 15 14 21 4 34 -14 17 -46 20 -55 4z m41 -10 c8
-14 -11 -33 -25 -25 -11 7 -4 36 9 36 5 0 12 -5 16 -11z m5 -75 c10 -13 10
-17 -2 -25 -17 -11 -21 -11 -38 0 -17 11 -7 41 12 41 8 0 20 -7 28 -16z"/>
<path d="M2620 840 l0 -70 43 0 c60 0 87 21 87 70 0 49 -27 70 -87 70 l-43 0
0 -70z m98 38 c7 -7 12 -24 12 -38 0 -35 -17 -50 -57 -50 -33 0 -33 0 -33 50
0 50 0 50 33 50 18 0 38 -5 45 -12z"/>
<path d="M2007 873 c-29 -7 -41 -51 -22 -79 28 -43 95 -24 95 26 0 25 -32 63
-50 59 -3 -1 -13 -3 -23 -6z m48 -48 c0 -25 -4 -31 -27 -33 -19 -2 -28 2 -33
18 -8 27 12 52 39 48 16 -2 21 -10 21 -33z"/>
<path d="M2120 860 c-25 -25 -26 -52 -2 -73 37 -34 92 -11 92 38 0 24 -33 55
-57 55 -7 0 -22 -9 -33 -20z m60 -15 c20 -25 8 -50 -25 -50 -21 0 -31 5 -33
18 -4 21 14 47 33 47 7 0 18 -7 25 -15z"/>
<path d="M2787 874 c-11 -11 -8 -104 3 -104 6 0 10 16 10 35 0 24 6 39 20 47
26 16 26 32 1 18 -13 -7 -20 -7 -23 1 -2 6 -7 7 -11 3z"/>
<path d="M2867 873 c-11 -10 -8 -103 3 -103 6 0 10 25 10 55 0 56 -1 60 -13
48z"/>
<path d="M2920 823 c0 -29 5 -53 10 -53 6 0 10 15 10 34 0 37 21 62 45 52 10
-3 15 -19 15 -46 0 -22 5 -40 10 -40 15 0 12 87 -2 97 -7 4 -30 8 -50 8 l-38
1 0 -53z"/>
</g>
</svg>
