<?xml version="1.0" standalone="no"?>
<!DOCTYPE svg PUBLIC "-//W3C//DTD SVG 20010904//EN"
 "http://www.w3.org/TR/2001/REC-SVG-20010904/DTD/svg10.dtd">
<svg version="1.0" xmlns="http://www.w3.org/2000/svg"
 width="1250.000000pt" height="1250.000000pt" viewBox="0 0 1250.000000 1250.000000"
 preserveAspectRatio="xMidYMid meet">

<g transform="translate(0.000000,1250.000000) scale(0.100000,-0.100000)"
fill="#000000" stroke="none">
<path d="M5955 10314 c-303 -30 -514 -67 -770 -134 -680 -178 -1315 -549
-1821 -1062 -304 -307 -498 -568 -703 -945 -59 -108 -171 -344 -171 -359 0 -2
72 -4 160 -4 l160 0 59 118 c191 381 389 658 690 965 573 585 1297 957 2111
1086 509 81 1091 48 1585 -91 650 -182 1217 -516 1686 -995 301 -307 499 -584
690 -965 l59 -118 160 0 c88 0 160 2 160 4 0 14 -102 228 -165 345 -213 399
-432 690 -766 1016 -493 482 -1111 834 -1764 1005 -388 102 -602 130 -1010
135 -170 1 -328 1 -350 -1z"/>
<path d="M5934 9759 c-218 -16 -608 -99 -826 -175 -475 -166 -877 -408 -1269
-767 -265 -243 -509 -561 -703 -919 l-48 -88 59 0 58 0 53 99 c28 55 94 162
145 238 425 637 1048 1112 1775 1352 610 202 1300 225 1917 66 853 -221 1577
-746 2047 -1485 40 -64 91 -151 113 -193 l40 -77 58 0 59 0 -48 88 c-335 618
-805 1096 -1411 1436 -402 226 -944 390 -1403 426 -144 11 -468 11 -616 -1z"/>
<path d="M5575 8900 c-152 -28 -298 -106 -376 -203 -54 -67 -105 -177 -121
-261 -11 -59 -15 -66 -36 -66 -82 0 -230 -62 -301 -126 -171 -154 -175 -464
-9 -609 66 -58 228 -125 300 -125 11 0 21 -11 25 -27 11 -38 10 -325 -1 -392
-7 -44 -6 -53 5 -48 233 104 322 121 609 121 242 1 352 -13 494 -59 l71 -23
-49 44 c-57 52 -160 104 -271 136 -73 21 -98 23 -295 22 -192 -1 -226 -4 -317
-26 l-103 -25 0 58 c0 86 -19 203 -43 273 l-22 61 -75 7 c-139 12 -246 68
-297 155 -26 44 -28 56 -28 148 0 84 4 107 22 141 31 58 76 100 142 134 66 33
161 54 166 36 1 -6 8 -37 15 -68 16 -78 61 -165 111 -213 l41 -40 -30 45 c-16
25 -37 69 -46 99 -21 71 -21 224 0 305 48 187 204 342 389 387 75 18 267 16
344 -5 193 -50 327 -198 366 -402 8 -42 15 -95 15 -120 l0 -43 93 6 c214 14
381 -56 439 -185 25 -55 34 -162 19 -234 -29 -137 -128 -209 -298 -216 l-93
-4 19 44 c28 66 34 120 20 185 l-12 58 -9 -45 c-26 -147 -179 -315 -328 -361
-18 -5 -8 -8 36 -8 57 -1 144 20 172 42 10 8 11 -4 6 -60 -4 -40 -1 -107 6
-159 18 -129 26 -142 34 -59 9 79 30 188 45 227 9 25 12 26 75 21 184 -15 355
74 422 221 52 113 52 298 0 412 -66 143 -227 237 -434 251 -48 4 -85 11 -87
17 -50 201 -88 279 -185 376 -126 127 -255 178 -465 185 -66 2 -142 0 -170 -5z"/>
<path d="M4367 6970 c-74 -47 -152 -162 -293 -435 l-73 -139 -86 177 c-104
212 -112 220 -228 226 -96 4 -158 -10 -218 -51 -65 -44 -92 -88 -97 -159 -4
-56 -3 -60 31 -94 29 -29 42 -35 77 -35 70 0 119 65 90 121 -13 23 -38 24 -68
3 -48 -33 -87 16 -61 78 18 44 91 88 146 88 38 0 44 -4 59 -32 17 -34 17 -79
-7 -383 -17 -223 -46 -293 -131 -315 -52 -14 -83 -4 -118 39 -25 30 -33 34
-48 25 -10 -7 -17 -23 -17 -40 0 -23 7 -33 35 -46 51 -26 161 -24 218 3 88 43
116 126 132 383 5 93 11 170 13 172 1 2 45 -82 97 -186 92 -184 96 -190 125
-190 29 1 32 5 84 123 53 121 120 251 126 245 2 -2 8 -57 15 -123 19 -206 41
-369 55 -401 16 -39 68 -59 131 -50 24 3 44 2 44 -3 0 -15 79 -41 126 -41 56
0 109 22 153 63 32 30 111 176 111 204 0 10 26 13 108 13 l108 0 13 -52 c29
-115 49 -155 88 -173 43 -21 115 -15 171 12 49 25 52 41 6 39 l-38 -1 -27 88
-27 87 54 0 c51 0 54 2 54 25 0 23 -4 24 -62 27 l-61 3 -38 134 c-76 267 -97
325 -126 353 -40 39 -74 48 -168 48 -175 0 -305 -93 -305 -217 0 -104 112
-163 181 -94 30 31 36 59 19 92 -13 23 -33 24 -65 3 -55 -36 -94 20 -59 85 38
71 180 110 227 63 24 -25 25 -22 -50 -299 l-46 -173 -73 0 c-72 0 -74 -1 -74
-25 0 -24 2 -25 65 -25 36 0 65 -3 65 -6 0 -16 -74 -162 -93 -182 -28 -30 -70
-52 -99 -52 -36 0 -70 28 -63 51 6 19 -9 25 -57 21 -9 -1 -19 6 -22 16 -8 26
-33 249 -56 509 -24 263 -21 294 35 350 41 41 76 43 104 6 20 -27 21 -28 36
-9 58 75 -52 117 -148 56z m572 -533 c22 -74 42 -144 46 -156 6 -20 3 -21 -85
-21 -84 0 -92 2 -85 18 3 9 23 81 43 159 20 78 38 140 40 139 1 -2 20 -64 41
-139z"/>
<path d="M7011 6829 c-25 -10 -25 -10 0 -122 12 -50 11 -71 -3 -156 -17 -95
-96 -361 -108 -361 -3 0 -41 115 -85 256 -57 184 -85 260 -99 270 -45 31 -156
5 -156 -37 0 -11 12 -61 27 -110 l27 -90 -32 -111 c-18 -61 -40 -129 -50 -151
l-17 -39 -80 258 c-43 141 -88 271 -100 288 -38 57 -79 76 -162 76 -152 0
-253 -84 -253 -210 0 -61 19 -102 55 -118 77 -35 155 12 143 88 -5 38 -31 47
-71 25 -30 -16 -38 -17 -51 -6 -20 17 -20 79 -1 105 38 50 110 71 149 43 11
-8 53 -131 122 -362 58 -192 110 -357 115 -367 11 -20 67 -33 98 -23 34 10 50
44 111 227 l57 170 26 -83 c14 -46 39 -130 56 -186 22 -70 39 -107 54 -118 30
-21 83 -19 106 4 21 21 120 317 183 545 48 176 56 268 24 292 -22 16 -50 17
-85 3z"/>
<path d="M8825 6821 c-72 -18 -112 -53 -144 -126 -14 -32 -30 -213 -31 -360
l-2 -90 -108 225 c-141 290 -141 290 -181 313 -28 15 -51 18 -139 15 -96 -3
-110 -6 -160 -34 -72 -41 -109 -94 -116 -165 -5 -46 -2 -59 18 -89 67 -98 233
-32 178 71 -13 24 -29 24 -70 2 -31 -18 -31 -18 -51 6 -25 30 -19 64 19 104
45 47 88 63 160 59 l24 -2 -4 -302 c-3 -282 -5 -306 -24 -348 -30 -64 -55 -83
-119 -88 -53 -4 -56 -3 -88 32 -39 43 -50 44 -65 11 -7 -14 -20 -25 -31 -25
-16 0 -25 16 -46 81 -14 44 -25 84 -25 90 0 5 23 9 50 9 47 0 50 2 50 25 0 24
-3 25 -59 25 -48 0 -61 3 -65 18 -139 479 -135 470 -199 501 -53 26 -177 29
-254 6 -129 -38 -204 -145 -174 -246 34 -113 213 -99 199 16 -5 43 -29 53 -72
30 -33 -18 -37 -18 -52 -3 -27 27 -20 76 17 114 46 48 126 69 186 50 46 -15
43 -45 -38 -338 l-41 -148 -75 0 c-71 0 -74 -1 -71 -22 3 -21 9 -23 66 -26 73
-3 72 -1 22 -107 -38 -80 -86 -125 -139 -132 -38 -5 -43 -3 -79 36 -32 35 -40
39 -53 29 -44 -36 -15 -90 55 -104 135 -25 227 38 297 205 l28 66 104 3 104 3
26 -93 c17 -58 36 -101 51 -116 32 -32 98 -39 163 -18 45 15 53 15 86 1 20 -8
65 -15 99 -15 114 1 183 51 215 158 13 45 16 102 17 269 1 116 4 209 7 207 4
-2 26 -48 49 -101 245 -558 365 -687 575 -615 60 20 61 37 3 37 -56 1 -96 31
-153 115 l-45 65 0 230 c0 369 21 435 143 451 37 5 48 2 75 -21 l32 -27 -39
-38 c-71 -69 -81 -170 -21 -222 79 -71 207 4 160 93 -13 23 -33 24 -65 3 -50
-33 -91 17 -60 75 24 47 120 101 180 101 l25 0 0 -169 0 -170 -42 -3 c-36 -2
-44 -7 -46 -25 -3 -21 1 -23 42 -23 l46 0 0 -125 c0 -141 9 -176 59 -217 39
-33 126 -52 205 -45 95 9 270 105 223 122 -8 4 -35 -4 -59 -16 -28 -14 -68
-24 -115 -27 -70 -4 -73 -4 -102 26 l-31 30 0 126 0 126 115 0 115 0 0 25 0
25 -115 0 -115 0 0 176 0 177 83 -5 c54 -4 101 -13 133 -27 46 -21 49 -21 61
-5 15 21 16 34 3 54 -14 22 -464 21 -530 -1 -45 -15 -46 -15 -63 7 -28 38
-115 53 -192 35z m-1256 -408 c23 -78 41 -144 41 -147 0 -3 -40 -6 -88 -6
l-88 0 40 154 c23 85 44 152 48 148 3 -4 25 -71 47 -149z"/>
<path d="M5646 6528 c-42 -38 -286 -463 -286 -497 l0 -31 130 0 130 0 0 -103
c0 -86 3 -107 18 -120 26 -23 67 -30 106 -17 44 14 56 50 56 162 l0 77 53 3
c45 3 52 6 55 26 3 21 0 22 -52 22 l-55 0 -3 229 c-3 209 -5 231 -22 250 -27
30 -96 29 -130 -1z m-30 -465 c-4 -9 -31 -13 -96 -13 -49 0 -90 2 -90 4 0 4
31 58 141 246 l44 75 3 -150 c1 -82 0 -155 -2 -162z"/>
<path d="M9990 5639 c-58 -12 -76 -43 -84 -148 -15 -199 -80 -352 -206 -485
-272 -287 -713 -389 -1680 -390 -513 0 -1120 38 -1905 119 -1239 128 -1772
165 -2375 165 -824 1 -1272 -54 -1725 -211 -138 -47 -354 -147 -447 -205 -39
-25 -49 -53 -25 -73 10 -8 45 4 143 48 478 218 1024 305 1914 304 671 0 973
-20 2320 -154 1220 -121 1558 -142 2295 -143 584 -1 768 13 1040 80 375 93
645 291 786 579 64 132 82 211 77 346 -4 117 -17 150 -65 166 -15 5 -44 6 -63
2z"/>
<path d="M8521 5626 c-16 -19 -6 -36 20 -36 15 0 20 6 17 22 -4 27 -21 33 -37
14z"/>
<path d="M5200 5451 l0 -59 -42 15 c-108 37 -206 -61 -166 -165 25 -67 119
-104 181 -71 16 9 22 9 25 0 2 -6 12 -11 23 -11 18 0 19 9 19 175 0 168 -1
175 -20 175 -18 0 -20 -7 -20 -59z m-25 -83 c23 -10 25 -16 25 -79 0 -66 -1
-69 -30 -84 -53 -27 -111 -12 -136 36 -22 43 -17 77 15 110 32 32 79 38 126
17z"/>
<path d="M7901 5486 c-9 -11 -10 -20 -1 -36 13 -24 38 -23 53 1 23 37 -25 68
-52 35z"/>
<path d="M3767 5483 c-4 -3 -7 -78 -7 -165 0 -151 1 -158 20 -158 18 0 20 7
20 55 l0 55 85 0 c78 0 85 2 85 20 0 18 -7 20 -85 20 l-85 0 0 70 0 69 97 3
c84 3 98 6 101 21 3 15 -7 17 -111 17 -62 0 -117 -3 -120 -7z"/>
<path d="M8270 5454 c-62 -22 -106 -58 -141 -114 -24 -39 -39 -52 -77 -66
-232 -84 -420 -191 -486 -279 -32 -42 -43 -89 -26 -110 20 -24 36 -18 91 31
128 113 341 250 459 294 56 21 61 21 113 6 119 -35 239 -13 312 58 36 34 45
49 45 77 0 45 -23 77 -74 100 -51 23 -153 24 -216 3z m204 -121 c-33 -44 -99
-73 -163 -73 -82 0 -96 16 -19 22 69 6 140 33 173 65 28 28 33 19 9 -14z"/>
<path d="M8667 5422 c-10 -10 -17 -28 -17 -39 0 -23 30 -53 53 -53 21 0 57 35
57 55 0 21 -36 55 -58 55 -11 0 -26 -8 -35 -18z"/>
<path d="M4236 5410 c-81 -25 -119 -117 -76 -187 28 -46 72 -66 134 -60 131
12 162 183 43 238 -46 20 -58 21 -101 9z m94 -45 c31 -16 55 -70 44 -101 -21
-60 -88 -88 -142 -60 -60 31 -71 99 -23 147 33 33 75 38 121 14z"/>
<path d="M4656 5410 c-81 -25 -119 -117 -76 -187 28 -46 72 -66 134 -60 131
12 162 183 43 238 -46 20 -58 21 -101 9z m94 -45 c31 -16 55 -70 44 -101 -21
-60 -88 -88 -142 -60 -60 31 -71 99 -23 147 33 33 75 38 121 14z"/>
<path d="M10275 5327 c-25 -25 -35 -47 -44 -92 -26 -135 -43 -191 -81 -267
-53 -107 -95 -162 -189 -250 -89 -83 -187 -145 -287 -181 -138 -50 -53 -50
101 0 269 87 510 330 604 611 31 90 28 146 -8 183 -38 37 -55 37 -96 -4z"/>
<path d="M8985 5301 c-126 -31 -239 -80 -341 -148 -51 -34 -53 -34 -131 -28
l-78 6 -83 -47 c-93 -53 -162 -109 -162 -130 0 -8 2 -14 4 -14 2 0 42 20 87
45 142 76 147 49 6 -33 -81 -47 -98 -65 -79 -84 9 -9 39 3 112 41 56 29 104
51 106 48 7 -6 -45 -45 -118 -88 -32 -18 -58 -38 -58 -43 0 -15 82 4 147 34
99 46 149 85 179 140 28 52 48 65 179 117 91 36 268 81 382 97 56 8 107 17
113 21 5 3 10 17 10 31 0 53 -134 70 -275 35z"/>
<path d="M2989 5138 c-252 -11 -544 -69 -839 -167 -148 -50 -325 -122 -343
-140 -22 -22 2 -20 74 4 406 140 967 225 1475 225 104 0 134 3 144 15 22 26 4
42 -57 50 -111 14 -309 20 -454 13z"/>
<path d="M8085 5117 c-10 -8 -16 -23 -13 -38 2 -19 9 -24 33 -24 25 0 31 4 33
27 4 34 -26 54 -53 35z"/>
<path d="M7935 4930 c-7 -12 2 -30 16 -30 12 0 12 27 0 35 -5 3 -12 1 -16 -5z"/>
<path d="M2638 4368 c10 -18 36 -64 57 -103 365 -668 967 -1255 1657 -1615
476 -249 846 -364 1428 -447 180 -25 760 -25 940 0 533 76 868 174 1287 377
457 222 761 436 1111 783 283 280 521 596 705 935 l55 102 -167 0 -168 0 -53
-87 c-289 -478 -691 -901 -1140 -1200 -460 -306 -982 -510 -1520 -593 -371
-57 -789 -57 -1160 0 -615 95 -1223 354 -1710 729 -188 144 -431 375 -586 556
-123 143 -292 381 -388 548 l-28 47 -170 0 -170 0 20 -32z"/>
<path d="M3260 4392 c0 -14 156 -238 234 -336 506 -636 1239 -1089 2021 -1250
299 -62 386 -70 735 -70 288 0 342 2 470 22 396 62 657 137 992 287 487 218
966 594 1308 1029 70 89 220 305 220 318 0 4 -24 8 -54 8 l-54 0 -68 -97
c-320 -463 -771 -856 -1272 -1107 -737 -370 -1566 -463 -2369 -266 -394 96
-823 293 -1151 527 -325 233 -637 549 -844 856 l-59 87 -54 0 c-30 0 -55 -4
-55 -8z"/>
<path d="M6189 4270 l-64 -125 -130 -19 c-71 -10 -132 -20 -134 -23 -3 -2 39
-48 93 -102 l97 -98 -22 -126 c-12 -70 -20 -130 -17 -133 3 -3 58 22 122 56
l116 62 121 -62 c66 -34 122 -60 124 -58 2 2 -7 62 -20 133 l-23 130 99 101
100 100 -137 19 -136 19 -62 125 -63 125 -64 -124z"/>
<path d="M5371 3957 l-34 -103 -99 -28 c-54 -16 -97 -32 -96 -36 2 -5 39 -35
83 -67 l81 -60 -4 -108 -4 -108 33 23 c19 13 58 42 88 64 l54 41 103 -37 c57
-19 104 -35 104 -34 0 1 -15 48 -34 104 l-34 101 64 85 c35 47 64 87 64 88 0
2 -47 2 -104 0 l-104 -3 -57 83 c-32 46 -61 86 -65 91 -3 4 -21 -39 -39 -96z"/>
<path d="M7035 3969 l-60 -89 -102 0 c-57 0 -103 -3 -103 -6 0 -3 27 -41 61
-85 l60 -80 -31 -95 c-18 -52 -30 -98 -26 -101 3 -3 46 9 95 27 50 18 97 30
105 27 8 -3 49 -31 90 -62 l76 -56 0 109 0 108 87 64 87 63 -104 31 -103 31
-33 99 c-19 54 -35 100 -36 101 -2 2 -30 -37 -63 -86z"/>
</g>
</svg>
