<?xml version="1.0" standalone="no"?>
<!DOCTYPE svg PUBLIC "-//W3C//DTD SVG 20010904//EN"
 "http://www.w3.org/TR/2001/REC-SVG-20010904/DTD/svg10.dtd">
<svg version="1.0" xmlns="http://www.w3.org/2000/svg"
 width="938.000000pt" height="938.000000pt" viewBox="0 0 938.000000 938.000000"
 preserveAspectRatio="xMidYMid meet">

<g transform="translate(0.000000,938.000000) scale(0.100000,-0.100000)"
fill="#000000" stroke="none">
<path d="M0 7905 c0 -1368 1 -1475 17 -1475 9 0 40 8 69 17 43 13 58 14 79 5
14 -7 35 -12 46 -12 22 0 81 -29 87 -42 2 -5 13 -8 23 -8 11 0 28 -4 37 -9 23
-12 118 12 155 40 17 12 35 18 47 14 14 -4 20 -2 20 8 0 8 6 17 14 20 16 6 12
32 -10 62 -13 17 -16 18 -25 5 -8 -13 -12 -12 -28 8 -13 15 -25 20 -37 15 -14
-5 -16 -3 -11 11 4 9 3 15 -2 11 -5 -3 -9 10 -8 29 1 19 6 32 11 29 4 -3 5 17
1 45 -4 32 -3 52 4 57 21 12 11 23 -26 27 -21 3 -51 1 -66 -5 -20 -6 -32 -6
-40 2 -31 31 -37 -3 -5 -36 19 -20 20 -26 9 -47 -7 -13 -24 -29 -38 -35 -25
-12 -47 -6 -38 9 3 5 0 12 -6 16 -21 12 -41 74 -29 89 7 9 8 15 1 19 -6 4 -8
13 -5 20 3 8 0 17 -6 21 -8 5 -8 11 1 21 8 10 15 11 25 3 7 -6 33 -9 58 -7 50
5 75 18 33 18 -26 0 -31 8 -30 47 0 7 -12 15 -27 18 -27 6 -41 26 -69 97 -7
19 -15 26 -26 22 -10 -4 -15 0 -15 11 0 13 6 15 33 10 69 -14 126 -52 112 -75
-3 -5 1 -13 10 -16 12 -5 15 -14 11 -31 -12 -45 67 -91 103 -60 29 25 50 27
60 8 6 -10 8 -20 6 -23 -3 -3 4 -13 15 -23 24 -21 26 -40 5 -31 -10 4 -15 -1
-15 -14 0 -11 6 -19 12 -18 7 2 14 -7 16 -19 2 -13 -1 -23 -7 -23 -6 0 -11 7
-11 15 0 8 -5 15 -11 15 -7 0 -9 -9 -5 -22 3 -13 6 -29 6 -35 0 -26 31 -12 47
22 14 29 18 32 28 19 19 -27 49 -13 59 28 7 29 15 38 38 43 39 9 54 39 33 67
-15 23 -19 66 -9 106 5 17 14 22 40 22 24 0 34 5 34 15 0 8 -3 14 -7 13 -16
-3 -43 15 -43 28 0 8 -7 17 -16 21 -9 3 -19 15 -24 27 -8 21 -8 21 -15 1 -16
-47 -30 -65 -62 -80 -32 -15 -33 -18 -20 -38 17 -27 12 -47 -13 -47 -24 0 -36
18 -38 58 -2 25 3 34 20 42 13 5 17 9 8 9 -17 1 -70 47 -70 61 0 16 -50 11
-56 -5 -4 -8 -13 -15 -21 -15 -9 0 -22 -8 -29 -17 -13 -17 -13 -17 -14 0 0 15
-7 18 -32 16 -20 -2 -32 1 -31 8 4 22 -38 48 -78 47 -33 -1 -46 -8 -74 -40
-36 -41 -68 -115 -59 -138 3 -8 -1 -20 -8 -27 -12 -11 -12 -19 4 -51 10 -21
24 -38 32 -38 7 0 21 -9 31 -20 16 -17 16 -20 2 -26 -8 -3 -25 -1 -36 6 -19
10 -21 8 -21 -26 0 -47 -27 -105 -46 -97 -17 6 -18 44 -2 62 11 11 10 14 0 18
-10 4 -8 9 5 19 13 9 14 13 4 14 -8 0 -11 7 -8 19 3 12 -1 22 -9 25 -19 7 -18
56 2 70 12 9 16 29 15 82 -1 96 7 130 38 163 37 40 51 73 37 87 -55 54 -68 77
-57 100 17 37 55 32 75 -10 9 -19 16 -40 16 -48 0 -30 59 -54 74 -30 2 4 19 9
37 10 48 4 53 22 14 49 -36 25 -55 51 -55 77 0 20 43 21 63 2 11 -11 17 -12
26 -3 7 7 11 8 11 0 0 -6 9 -13 19 -16 15 -3 21 1 23 17 2 16 11 22 36 24 24
2 32 8 32 23 0 10 -4 19 -10 19 -14 0 -13 57 2 66 8 5 9 -2 5 -24 -4 -18 -2
-34 4 -38 6 -3 14 -16 19 -28 11 -30 24 79 16 131 -6 31 -2 48 19 85 18 32 24
54 19 71 -9 38 4 67 30 67 12 0 27 -5 34 -12 15 -15 16 -64 2 -73 -13 -8 -13
-65 0 -65 6 0 10 6 10 13 1 7 6 5 14 -5 12 -16 14 -15 27 10 8 15 22 35 32 44
15 13 16 21 8 37 -7 13 -8 22 -1 26 6 3 14 -4 19 -17 8 -22 8 -22 15 -2 3 12
4 29 0 38 -4 10 0 18 12 22 11 3 27 10 36 15 31 16 36 10 30 -36 -4 -37 -1
-49 14 -60 11 -8 25 -15 32 -15 21 0 13 16 -13 28 -14 6 -25 16 -25 22 0 15
53 8 68 -10 11 -13 12 -10 10 15 -3 27 -6 30 -35 29 -21 -1 -31 2 -26 9 3 5
10 24 14 41 5 24 7 26 8 9 1 -13 7 -23 16 -23 8 0 15 -5 15 -11 0 -8 4 -8 14
0 7 6 21 9 30 5 23 -9 20 13 -4 26 -11 6 -20 17 -20 25 0 21 9 19 30 -5 21
-24 35 -11 25 21 -7 20 -5 21 28 15 20 -4 38 -2 41 3 7 11 -17 21 -48 21 -13
0 -43 15 -67 34 -32 24 -49 31 -64 26 -28 -10 -35 -4 -35 33 0 42 33 66 59 43
22 -20 31 -20 31 -1 0 21 24 9 35 -18 6 -12 20 -23 31 -25 12 -2 27 -15 34
-30 l13 -27 8 25 c4 14 7 34 8 45 1 16 -1 17 -9 5 -7 -12 -12 -12 -34 0 -14 7
-26 17 -26 22 0 4 -7 8 -15 8 -8 0 -15 4 -15 9 0 5 -10 11 -21 14 -17 5 -20
11 -15 31 4 18 2 26 -6 26 -21 0 -37 44 -23 64 27 36 89 9 78 -34 -6 -22 15
-36 29 -22 6 6 11 25 10 42 0 20 4 30 11 27 7 -2 11 -16 9 -31 -3 -31 8 -34
26 -6 7 11 19 20 27 20 8 0 15 5 15 10 0 6 7 10 15 10 8 0 15 7 15 15 0 12
-12 14 -57 11 -32 -1 -50 -1 -40 1 9 3 17 9 17 14 0 5 -8 9 -17 9 -10 0 -29 9
-43 20 -16 12 -40 19 -65 19 -22 0 -34 -3 -27 -6 15 -6 16 -39 1 -48 -5 -4
-21 -4 -35 -1 -17 5 -24 13 -24 31 0 30 -20 33 -38 4 -16 -26 -52 -22 -63 8
-6 15 -3 28 9 42 14 16 35 21 107 26 86 6 92 5 129 -20 21 -14 45 -24 53 -21
9 4 11 2 7 -6 -5 -8 4 -9 32 -5 21 4 45 7 52 7 6 0 12 9 12 20 0 11 -4 20 -10
20 -5 0 -10 7 -10 15 0 16 20 20 36 7 24 -21 164 -49 164 -32 0 5 -11 10 -25
10 -28 0 -34 15 -10 24 23 8 -3 48 -27 40 -10 -3 -21 3 -28 16 -8 15 -18 19
-38 15 -15 -3 -21 -2 -14 1 16 7 16 24 -1 24 -7 0 -18 -9 -25 -20 -7 -11 -16
-20 -20 -20 -5 0 -18 9 -30 20 -12 11 -23 20 -26 20 -6 0 1 -25 16 -57 6 -12
8 -31 5 -42 -3 -12 -1 -21 4 -21 5 0 9 -4 9 -9 0 -5 -13 -3 -30 5 -16 9 -30
22 -30 29 0 7 -8 27 -17 43 -14 25 -15 32 -4 46 7 9 20 16 27 16 8 0 11 6 8
15 -4 8 -12 15 -20 15 -8 0 -14 7 -14 15 0 8 -4 15 -10 15 -5 0 -10 -5 -10
-12 0 -7 -6 -5 -17 4 -10 9 -36 21 -58 28 -22 7 -43 17 -47 23 -4 6 -12 4 -23
-6 -34 -34 -92 -9 -83 35 3 17 -1 29 -14 37 -44 27 3 79 81 88 75 9 115 38
121 90 4 33 18 54 78 119 40 44 83 99 95 124 15 31 29 46 46 48 49 7 88 -8
133 -53 49 -50 66 -51 85 -7 l13 28 135 -4 c144 -5 174 0 157 21 -8 9 -7 20 3
37 8 14 19 35 24 47 5 12 20 23 33 25 15 2 24 11 26 26 2 12 -1 22 -7 22 -6 0
-11 -4 -11 -10 0 -13 -27 -13 -35 1 -4 6 2 13 14 16 14 4 21 13 21 30 l0 24
30 -21 c32 -23 37 -16 18 25 l-11 25 -904 0 -903 0 0 -1475z m616 1417 c-3 -2
1 -14 9 -26 19 -26 19 -50 1 -65 -20 -16 -39 11 -34 49 2 16 0 31 -6 33 -5 2
-6 11 -3 21 6 15 10 16 22 6 9 -7 13 -15 11 -18z m12 -205 c4 -34 -15 -60 -40
-54 -10 3 -21 1 -24 -4 -3 -5 -14 -9 -24 -9 -19 0 -36 32 -25 50 9 14 52 12
58 -2 3 -7 6 -1 6 13 1 14 4 29 8 33 15 15 38 0 41 -27z m50 -140 c19 -15 15
-65 -7 -76 -14 -8 -22 -5 -39 16 -11 14 -19 32 -16 39 2 8 6 21 9 29 4 15 27
12 53 -8z m-70 -109 c2 -29 -1 -39 -17 -48 -18 -9 -23 -7 -32 14 -17 37 -4 78
24 74 17 -2 23 -11 25 -40z m153 21 c11 -21 0 -38 -24 -39 -11 0 -20 28 -13
45 8 21 23 19 37 -6z m-363 -51 c-3 -25 -17 -32 -37 -19 -19 12 -6 41 19 41
16 0 21 -5 18 -22z m264 -19 c-15 -24 -17 -143 -3 -181 5 -14 7 -29 4 -32 -4
-3 -1 -6 5 -6 7 0 15 -18 18 -40 5 -33 10 -39 24 -35 12 4 19 -1 23 -15 7 -27
-13 -38 -29 -15 -8 11 -21 16 -33 12 -22 -5 -35 15 -32 50 1 14 -5 24 -18 28
-12 3 -21 9 -22 13 0 4 -2 36 -5 72 -2 36 -6 77 -9 91 -5 20 1 32 31 62 26 25
41 34 48 27 7 -7 6 -17 -2 -31z m-92 -175 c0 -8 -9 -14 -20 -14 -22 0 -26 10
-8 28 13 13 28 7 28 -14z m-103 -22 c7 -4 14 -19 15 -32 3 -21 -2 -26 -24 -28
-25 -3 -28 0 -28 26 0 40 12 50 37 34z m-49 -35 c4 -20 -25 -34 -39 -20 -14
14 1 45 20 41 9 -2 17 -11 19 -21z m152 -36 c0 -11 -4 -22 -9 -25 -12 -8 -34
21 -26 34 11 17 35 11 35 -9z m434 -30 c3 -4 -3 -16 -14 -26 -23 -21 -47 -8
-37 19 7 17 42 22 51 7z m-37 -57 c21 -6 21 -6 2 -25 -23 -23 -26 -23 -45 -4
-27 26 -4 42 43 29z m-219 -32 c5 -17 -87 -102 -110 -102 -9 0 -23 -9 -31 -21
-12 -16 -17 -18 -23 -7 -6 9 -10 4 -14 -17 -5 -31 -35 -43 -35 -15 0 8 -6 20
-14 26 -19 15 -10 49 14 50 11 1 26 2 33 3 6 1 12 7 12 15 0 25 28 40 55 28
21 -10 26 -8 44 24 16 26 27 35 43 32 12 -2 23 -9 26 -16z m272 1 c0 -5 -5
-15 -10 -23 -8 -12 -10 -11 -10 8 0 12 5 22 10 22 6 0 10 -3 10 -7z m-804 -48
c-3 -9 -14 -15 -23 -13 -22 4 -30 38 -11 49 18 11 43 -15 34 -36z m634 25 c0
-5 -2 -10 -4 -10 -3 0 -8 5 -11 10 -3 6 -1 10 4 10 6 0 11 -4 11 -10z m390 1
c0 -19 -18 -21 -46 -6 l-29 15 38 0 c20 0 37 -4 37 -9z m-393 -159 c7 -4 10
-17 7 -29 -6 -21 -6 -21 -25 -2 -27 27 -13 50 18 31z m-173 -34 c21 -22 1 -37
-41 -31 -29 5 -50 33 -35 47 10 10 60 -1 76 -16z m226 -248 c0 -5 -7 -10 -15
-10 -8 0 -15 5 -15 10 0 6 7 10 15 10 8 0 15 -4 15 -10z m47 -47 c-3 -3 -11
-2 -17 2 -9 6 -9 10 1 16 14 8 27 -7 16 -18z m-254 -119 c-9 -15 -19 -22 -21
-16 -2 6 3 18 10 26 22 25 30 18 11 -10z m-9 -83 c-4 -3 -9 0 -11 7 -3 6 -11
12 -19 12 -9 0 -12 5 -9 11 5 7 14 4 26 -7 11 -9 16 -20 13 -23z m-217 -93
c-3 -8 -6 -5 -6 6 -1 11 2 17 5 13 3 -3 4 -12 1 -19z m-37 -178 c0 -5 -2 -10
-4 -10 -3 0 -8 5 -11 10 -3 6 -1 10 4 10 6 0 11 -4 11 -10z m280 -500 c0 -5
-4 -10 -9 -10 -6 0 -13 5 -16 10 -3 6 1 10 9 10 9 0 16 -4 16 -10z m-585 -449
c7 -12 -12 -24 -25 -16 -11 7 -4 25 10 25 5 0 11 -4 15 -9z m-61 -16 c4 -11
-2 -15 -21 -15 -21 0 -24 2 -13 15 7 8 16 15 20 15 4 0 10 -7 14 -15z m433
-31 c-3 -3 -12 -4 -19 -1 -8 3 -5 6 6 6 11 1 17 -2 13 -5z"/>
<path d="M1901 9364 c0 -11 3 -14 6 -6 3 7 2 16 -1 19 -3 4 -6 -2 -5 -13z"/>
<path d="M2070 9373 c0 -5 11 -13 24 -19 21 -10 25 -9 29 7 4 15 0 19 -24 19
-16 0 -29 -3 -29 -7z"/>
<path d="M2153 9360 c3 -12 -1 -24 -11 -30 -14 -8 -12 -9 11 -10 21 0 30 6 34
20 3 11 9 20 14 20 5 0 9 -9 9 -20 0 -25 5 -25 40 0 20 14 37 18 59 14 24 -5
31 -3 31 10 0 14 -14 16 -96 16 -91 0 -96 -1 -91 -20z"/>
<path d="M2380 9371 c0 -13 28 -22 35 -10 4 5 10 7 15 4 17 -11 101 -8 113 4
8 8 -11 11 -76 11 -48 0 -87 -4 -87 -9z"/>
<path d="M5313 9373 c9 -2 25 -2 35 0 9 3 1 5 -18 5 -19 0 -27 -2 -17 -5z"/>
<path d="M5400 9365 c0 -8 7 -15 15 -15 8 0 15 7 15 15 0 8 -7 15 -15 15 -8 0
-15 -7 -15 -15z"/>
<path d="M5484 9348 c1 -29 -2 -33 -22 -30 -15 1 -22 -2 -20 -10 3 -7 11 -13
18 -13 7 0 15 -6 18 -14 3 -9 -1 -11 -15 -7 -11 4 -27 4 -35 1 -21 -8 29 -60
109 -113 34 -23 65 -46 68 -52 4 -6 22 -17 42 -25 20 -8 43 -23 52 -34 9 -10
26 -21 37 -25 12 -4 37 -21 55 -39 19 -19 43 -38 53 -44 24 -13 17 -34 -38
-115 -23 -35 -41 -70 -40 -76 1 -7 0 -8 -3 -2 -9 18 -20 11 -47 -30 -28 -42
-32 -60 -16 -60 6 0 10 7 10 15 0 8 5 15 10 15 6 0 10 9 10 20 0 11 7 20 15
20 11 0 15 -12 15 -48 0 -68 15 -83 96 -98 60 -11 64 -12 27 -13 -23 -1 -45
-5 -48 -11 -3 -5 14 -31 37 -57 24 -27 74 -84 110 -128 36 -44 78 -91 92 -104
14 -14 26 -28 26 -32 0 -4 26 -35 58 -67 109 -113 202 -216 202 -224 0 -4 7
-8 15 -8 8 0 15 -6 15 -13 0 -7 21 -36 48 -64 66 -73 107 -121 142 -170 17
-24 38 -43 48 -43 29 0 62 29 62 56 0 25 4 27 50 38 15 3 37 24 55 51 19 29
37 45 50 45 16 0 24 11 34 48 8 26 25 68 37 94 13 26 24 54 24 62 0 35 26 69
66 87 83 35 313 36 444 1 55 -14 213 -94 249 -126 22 -19 81 -19 81 0 0 19 16
18 24 -1 7 -20 99 -20 123 0 10 8 53 42 96 76 l79 62 44 -10 c80 -19 185 20
212 77 13 27 24 36 47 38 24 2 27 0 13 -8 -19 -11 -13 -50 8 -50 7 0 14 -12
16 -27 2 -16 9 -28 18 -29 8 -1 21 -2 28 -2 7 -1 18 -15 23 -32 6 -16 19 -32
29 -35 15 -5 17 -13 13 -40 -10 -60 3 -84 55 -106 73 -30 98 -46 145 -95 51
-52 56 -75 51 -236 -2 -54 1 -100 7 -103 5 -4 9 -14 9 -23 0 -20 85 -115 117
-131 12 -6 38 -44 58 -86 l36 -76 47 27 c104 59 162 85 180 80 24 -8 47 -51
44 -83 -1 -14 12 -44 31 -71 17 -26 35 -53 39 -62 4 -8 7 510 7 1153 l1 1167
-914 0 -914 0 -6 -22 c-3 -15 0 -27 9 -34 8 -6 15 -19 15 -28 0 -9 9 -25 20
-36 11 -11 20 -23 20 -28 0 -4 18 -29 40 -56 22 -26 40 -54 40 -62 0 -7 6 -17
13 -21 8 -4 33 -37 57 -73 24 -36 54 -76 67 -90 13 -14 26 -33 29 -42 3 -9 18
-31 35 -49 16 -17 29 -36 29 -41 0 -5 14 -29 31 -53 17 -24 29 -51 27 -61 -3
-15 -11 -9 -38 30 -19 26 -70 91 -112 145 -43 53 -78 101 -78 106 0 6 -13 23
-30 38 -16 16 -30 35 -30 42 0 8 -6 18 -13 22 -7 4 -20 19 -29 33 -9 14 -32
43 -52 65 -48 53 -58 38 -50 -76 6 -79 5 -88 -15 -108 -14 -14 -33 -21 -61
-21 -53 0 -92 -21 -127 -67 -32 -45 -51 -64 -81 -80 -31 -19 -42 -16 -69 15
-19 21 -23 35 -19 62 18 119 21 126 57 115 l21 -7 -21 -15 c-12 -8 -21 -23
-21 -33 0 -10 -4 -22 -10 -25 -5 -3 -10 -17 -10 -30 0 -13 5 -27 10 -30 6 -3
10 -15 10 -26 0 -10 7 -19 15 -19 22 0 65 30 65 45 0 7 6 15 13 18 9 3 9 7 1
18 -7 8 -14 32 -16 54 -4 32 0 46 19 68 28 35 29 43 3 57 -17 9 -26 5 -55 -25
-20 -19 -38 -35 -40 -35 -20 0 9 89 36 110 3 3 9 12 12 20 4 10 6 8 6 -7 1
-23 21 -43 21 -21 0 8 16 29 35 48 19 19 35 38 35 43 0 5 11 22 25 39 14 16
25 36 25 44 0 20 -27 18 -39 -3 -13 -23 -14 -9 -1 17 6 11 15 29 20 40 6 11
10 22 10 25 0 3 -76 5 -169 5 -126 0 -171 -3 -174 -12 -4 -10 -6 -10 -6 0 -1
9 -130 12 -608 12 l-608 0 -2 -46 c-1 -25 -7 -52 -13 -60 -16 -18 -44 -19 -37
0 5 12 1 13 -24 4 -16 -5 -29 -15 -28 -22 5 -38 -15 -51 -26 -16 -3 11 -9 19
-13 18 -16 -3 -42 15 -42 29 0 12 8 14 34 9 37 -7 40 -5 50 37 6 26 5 27 -32
27 -21 0 -43 5 -49 11 -16 16 -67 7 -71 -13 -3 -14 3 -18 27 -18 56 0 41 -17
-21 -23 -78 -7 -89 -3 -81 34 4 22 2 29 -10 29 -11 0 -15 -9 -13 -32z m406
-18 c0 -5 -7 -10 -15 -10 -8 0 -15 5 -15 10 0 6 7 10 15 10 8 0 15 -4 15 -10z
m-298 -40 c21 -6 45 -18 54 -27 15 -16 14 -18 -15 -32 -27 -13 -34 -13 -41 -1
-7 11 -11 11 -23 1 -13 -10 -17 -7 -25 16 l-10 28 -1 -32 c-1 -42 -13 -48 -39
-18 -26 30 -27 35 -7 35 8 0 15 9 15 20 0 23 31 26 92 10z m1768 -24 c0 -3 -4
-8 -10 -11 -5 -3 -10 -1 -10 4 0 6 5 11 10 11 6 0 10 -2 10 -4z m-46 -64 c-17
-36 -34 -42 -34 -13 0 17 38 56 47 47 2 -1 -4 -17 -13 -34z m-1460 -3 c-3 -5
-10 -7 -15 -3 -5 3 -7 10 -3 15 3 5 10 7 15 3 5 -3 7 -10 3 -15z m-119 -19
c-3 -5 -10 -10 -16 -10 -5 0 -9 5 -9 10 0 6 7 10 16 10 8 0 12 -4 9 -10z m153
-10 c11 -18 10 -20 -14 -20 -25 0 -26 -2 -19 -36 5 -27 2 -41 -11 -55 -21 -23
-38 -15 -23 12 5 11 7 29 4 40 -5 14 0 27 14 40 12 11 21 24 21 29 0 17 14 11
28 -10z m-100 -32 c-6 -18 -28 -21 -28 -4 0 9 7 16 16 16 9 0 14 -5 12 -12z
m-53 -58 c3 -5 1 -10 -4 -10 -6 0 -11 5 -11 10 0 6 2 10 4 10 3 0 8 -4 11 -10z
m455 -24 c0 -8 3 -21 6 -30 4 -11 1 -16 -11 -16 -11 0 -15 5 -12 14 3 8 -2 17
-11 21 -14 5 -14 7 -2 15 21 14 30 12 30 -4z m60 -31 c0 -17 -2 -18 -24 -9
-23 9 -20 24 4 24 11 0 20 -7 20 -15z m148 -4 c10 -6 4 -10 -19 -15 -36 -7
-51 0 -29 14 19 12 31 12 48 1z m-455 -28 c-7 -2 -21 -2 -30 0 -10 3 -4 5 12
5 17 0 24 -2 18 -5z m307 -18 c0 -12 -40 -48 -46 -42 -4 4 1 16 11 27 17 19
35 26 35 15z m-103 -37 c-3 -8 -6 -5 -6 6 -1 11 2 17 5 13 3 -3 4 -12 1 -19z
m1133 12 c0 -5 -4 -10 -9 -10 -5 0 -7 -18 -4 -39 5 -37 4 -39 -16 -34 -19 5
-21 10 -15 42 6 33 18 50 37 51 4 0 7 -4 7 -10z m-962 -69 c-5 -2 -13 1 -17 6
-3 5 -15 13 -26 17 -16 6 -17 9 -5 16 9 6 21 1 36 -13 13 -12 18 -24 12 -26z
m-89 -22 c24 -43 10 -59 -53 -59 -51 0 -57 3 -80 33 -15 19 -26 36 -26 38 0 2
14 4 30 5 19 1 30 -4 30 -12 0 -17 1 -17 35 -4 15 6 23 15 19 21 -4 7 1 10 12
7 10 -2 25 -15 33 -29z m251 -10 c0 -5 -5 -9 -11 -9 -6 0 -23 -9 -39 -20 -24
-17 -29 -18 -46 -5 -15 12 -16 16 -5 24 7 5 21 7 30 4 10 -2 23 2 30 11 13 15
41 12 41 -5z m-90 -60 c0 -5 -15 -16 -33 -24 -19 -8 -39 -21 -47 -29 -7 -9
-19 -16 -26 -16 -8 0 -14 -4 -14 -9 0 -10 -30 -24 -37 -17 -3 2 5 14 18 27 20
20 21 23 5 35 -24 17 -2 28 23 12 18 -11 24 -10 43 10 23 23 68 30 68 11z
m-178 -111 c-9 -9 -15 -9 -24 0 -9 9 -7 12 12 12 19 0 21 -3 12 -12z m1785
-40 c-3 -7 -5 -2 -5 12 0 14 2 19 5 13 2 -7 2 -19 0 -25z m-1877 2 c0 -5 -8
-10 -17 -10 -15 0 -16 2 -3 10 19 12 20 12 20 0z m1710 -580 c0 -5 -8 -10 -17
-10 -15 0 -16 2 -3 10 19 12 20 12 20 0z"/>
<path d="M5570 9265 c0 -8 2 -15 4 -15 2 0 12 -3 20 -6 12 -4 15 -2 10 9 -8
21 -34 30 -34 12z"/>
<path d="M7510 9350 c0 -5 5 -10 11 -10 5 0 7 5 4 10 -3 6 -8 10 -11 10 -2 0
-4 -4 -4 -10z"/>
<path d="M5380 9296 c0 -9 5 -16 10 -16 6 0 10 4 10 9 0 6 -4 13 -10 16 -5 3
-10 -1 -10 -9z"/>
<path d="M7510 9292 c0 -11 7 -22 15 -26 9 -3 15 0 15 8 0 7 -7 19 -15 26 -12
10 -15 9 -15 -8z"/>
<path d="M2207 9293 c-12 -12 -7 -22 8 -17 8 4 15 10 15 15 0 11 -14 12 -23 2z"/>
<path d="M1740 9160 c0 -5 4 -10 9 -10 6 0 13 5 16 10 3 6 -1 10 -9 10 -9 0
-16 -4 -16 -10z"/>
<path d="M1800 9160 c0 -5 7 -10 15 -10 8 0 15 5 15 10 0 6 -7 10 -15 10 -8 0
-15 -4 -15 -10z"/>
<path d="M1850 9140 c0 -5 7 -10 15 -10 8 0 15 5 15 10 0 6 -7 10 -15 10 -8 0
-15 -4 -15 -10z"/>
<path d="M1750 9130 c-19 -6 -9 -8 35 -8 42 -1 54 2 40 8 -24 10 -42 10 -75 0z"/>
<path d="M2210 8981 c0 -12 5 -21 10 -21 6 0 10 6 10 14 0 8 -4 18 -10 21 -5
3 -10 -3 -10 -14z"/>
<path d="M4658 8968 c8 -8 17 -8 34 0 22 10 21 11 -11 11 -27 1 -32 -2 -23
-11z"/>
<path d="M2264 8885 c18 -37 66 -92 66 -77 0 12 -13 30 -58 81 l-23 26 15 -30z"/>
<path d="M4627 8886 c-27 -12 -27 -13 -8 -30 18 -17 20 -16 35 6 28 39 21 45
-27 24z"/>
<path d="M4590 8825 c0 -8 7 -15 15 -15 8 0 15 7 15 15 0 8 -7 15 -15 15 -8 0
-15 -7 -15 -15z"/>
<path d="M2340 8776 c0 -15 24 -28 34 -19 7 7 -13 33 -25 33 -5 0 -9 -6 -9
-14z"/>
<path d="M4562 8758 c-7 -7 -12 -20 -12 -29 0 -10 -4 -19 -10 -21 -12 -4 1
-57 15 -59 6 0 14 14 18 33 4 18 12 45 17 61 9 29 -6 37 -28 15z"/>
<path d="M2400 8740 c0 -5 0 -13 0 -17 0 -5 11 -9 25 -10 29 -2 32 5 8 23 -22
16 -33 17 -33 4z"/>
<path d="M1346 8725 c-11 -8 -31 -15 -45 -15 -23 -1 -24 -2 -10 -13 9 -7 19
-22 23 -33 8 -27 68 -39 105 -21 30 14 40 57 18 75 -24 20 -70 23 -91 7z"/>
<path d="M1058 8723 c6 -2 18 -2 25 0 6 3 1 5 -13 5 -14 0 -19 -2 -12 -5z"/>
<path d="M2480 8671 c0 -5 13 -16 30 -24 26 -13 31 -13 42 1 11 13 10 15 -5 9
-11 -4 -24 -1 -33 8 -17 17 -34 20 -34 6z"/>
<path d="M5665 8600 c-3 -5 -1 -10 4 -10 6 0 11 5 11 10 0 6 -2 10 -4 10 -3 0
-8 -4 -11 -10z"/>
<path d="M1550 8575 c-20 -24 -4 -45 34 -45 40 0 53 21 27 44 -22 20 -45 20
-61 1z"/>
<path d="M5728 8553 c7 -3 16 -2 19 1 4 3 -2 6 -13 5 -11 0 -14 -3 -6 -6z"/>
<path d="M2808 8533 c7 -3 16 -2 19 1 4 3 -2 6 -13 5 -11 0 -14 -3 -6 -6z"/>
<path d="M4520 8386 c0 -8 5 -18 10 -21 6 -3 10 1 10 9 0 8 -4 18 -10 21 -5 3
-10 -1 -10 -9z"/>
<path d="M4505 8350 c-3 -5 -1 -10 4 -10 6 0 11 5 11 10 0 6 -2 10 -4 10 -3 0
-8 -4 -11 -10z"/>
<path d="M1418 8309 c5 -45 16 -41 25 9 5 26 3 32 -11 32 -14 0 -17 -7 -14
-41z"/>
<path d="M1361 8294 c0 -11 3 -14 6 -6 3 7 2 16 -1 19 -3 4 -6 -2 -5 -13z"/>
<path d="M1220 8270 c0 -15 -7 -20 -25 -20 -14 0 -25 -4 -25 -10 0 -5 5 -10
10 -10 17 0 11 -18 -7 -23 -16 -4 -16 -5 1 -6 10 0 27 -12 38 -26 11 -14 28
-25 39 -25 29 0 23 15 -16 33 -47 22 -39 48 13 40 35 -6 36 -5 22 13 -8 10
-22 27 -32 37 -17 17 -18 17 -18 -3z"/>
<path d="M1250 8283 c0 -12 52 -33 63 -26 13 8 -21 33 -45 33 -10 0 -18 -3
-18 -7z"/>
<path d="M1364 8256 c-9 -10 -7 -15 7 -24 17 -11 19 -9 19 13 0 27 -9 31 -26
11z"/>
<path d="M1525 8210 c-3 -5 -1 -10 4 -10 6 0 11 5 11 10 0 6 -2 10 -4 10 -3 0
-8 -4 -11 -10z"/>
<path d="M1315 8180 c3 -5 15 -10 26 -10 10 0 19 5 19 10 0 6 -12 10 -26 10
-14 0 -23 -4 -19 -10z"/>
<path d="M1550 8186 c0 -9 30 -14 35 -6 4 6 -3 10 -14 10 -12 0 -21 -2 -21 -4z"/>
<path d="M1130 8162 c0 -10 22 -32 32 -32 12 0 -2 28 -18 34 -8 3 -14 2 -14
-2z"/>
<path d="M1417 8150 c3 -11 7 -20 9 -20 2 0 4 9 4 20 0 11 -4 20 -9 20 -5 0
-7 -9 -4 -20z"/>
<path d="M996 8145 c-4 -12 -1 -24 9 -34 13 -13 15 -13 14 -1 0 8 -4 24 -8 34
-7 19 -8 19 -15 1z"/>
<path d="M1228 8093 c6 -2 18 -2 25 0 6 3 1 5 -13 5 -14 0 -19 -2 -12 -5z"/>
<path d="M920 8044 c0 -9 28 -34 38 -34 6 0 12 -5 14 -11 2 -6 13 -9 23 -6 19
5 19 5 -2 12 -13 4 -23 11 -23 16 0 5 -7 9 -15 9 -8 0 -15 5 -15 10 0 6 -4 10
-10 10 -5 0 -10 -3 -10 -6z"/>
<path d="M1240 8009 c0 -5 5 -7 10 -4 6 3 10 8 10 11 0 2 -4 4 -10 4 -5 0 -10
-5 -10 -11z"/>
<path d="M1060 7980 c0 -5 5 -10 10 -10 6 0 10 5 10 10 0 6 -4 10 -10 10 -5 0
-10 -4 -10 -10z"/>
<path d="M7135 7910 c-4 -6 -7 -56 -6 -110 1 -58 -3 -101 -9 -105 -12 -7 -14
-92 -1 -99 4 -3 25 4 47 14 21 11 46 20 55 20 50 0 120 54 104 79 -6 11 4 41
15 41 4 0 10 -9 13 -20 5 -20 37 -29 37 -10 0 6 6 10 13 10 19 0 77 59 77 79
0 29 -26 44 -65 38 -19 -3 -35 -2 -35 2 0 11 -51 8 -68 -3 -7 -4 -13 -20 -12
-34 5 -72 -1 -113 -16 -119 -25 -9 -41 14 -26 37 6 11 12 42 12 70 0 40 -5 55
-27 79 -31 33 -95 51 -108 31z m192 -102 c-3 -8 -6 -5 -6 6 -1 11 2 17 5 13 3
-3 4 -12 1 -19z"/>
<path d="M1065 7890 c-3 -5 1 -10 10 -10 9 0 13 5 10 10 -3 6 -8 10 -10 10 -2
0 -7 -4 -10 -10z"/>
<path d="M7070 7850 c0 -23 -4 -30 -20 -30 -11 0 -20 -5 -20 -11 0 -6 -6 -17
-14 -24 -10 -11 -12 -24 -6 -52 10 -43 6 -53 -20 -53 -26 0 -30 9 -32 84 l-2
66 -30 0 c-47 0 -93 -33 -101 -72 -4 -18 -16 -45 -27 -61 -11 -15 -18 -33 -15
-40 7 -20 -12 -47 -33 -47 -15 0 -20 7 -20 25 0 14 -4 25 -8 25 -16 0 -51 -45
-44 -56 7 -11 47 -24 91 -30 13 -2 27 -7 30 -11 8 -10 96 -10 188 1 68 8 72
10 78 37 4 16 4 43 0 59 -4 17 -2 30 3 30 5 0 12 17 16 38 3 20 10 60 15 87
10 54 7 65 -15 65 -9 0 -14 -11 -14 -30z"/>
<path d="M985 7850 c-8 -13 46 -43 57 -32 6 6 -1 15 -21 25 -17 8 -33 12 -36
7z"/>
<path d="M1150 7850 c0 -5 5 -10 10 -10 6 0 10 5 10 10 0 6 -4 10 -10 10 -5 0
-10 -4 -10 -10z"/>
<path d="M4620 7841 c0 -14 69 -43 95 -39 16 2 13 6 -15 19 -53 25 -80 32 -80
20z"/>
<path d="M1225 7830 c4 -6 11 -8 16 -5 14 9 11 15 -7 15 -8 0 -12 -5 -9 -10z"/>
<path d="M1020 7790 c0 -5 5 -10 10 -10 6 0 10 5 10 10 0 6 -4 10 -10 10 -5 0
-10 -4 -10 -10z"/>
<path d="M7913 7779 c-7 -7 -9 -25 -6 -41 4 -19 0 -35 -10 -46 -9 -9 -20 -29
-26 -45 -11 -27 -34 -36 -46 -16 -4 5 0 18 9 28 19 21 21 54 4 49 -7 -3 -19 3
-28 13 -9 10 -37 20 -67 24 -57 7 -69 -3 -29 -25 13 -7 27 -21 29 -31 3 -11
14 -19 26 -19 14 0 21 -6 21 -18 0 -11 9 -27 20 -37 21 -19 18 -35 -6 -35 -8
0 -14 7 -14 15 0 8 -9 15 -20 15 -27 0 -26 -20 1 -27 19 -5 18 -7 -10 -19 -32
-14 -42 -34 -16 -34 8 0 15 5 15 10 0 6 8 5 20 -2 11 -7 20 -21 20 -31 0 -16
2 -17 15 -3 20 20 19 34 -2 32 -10 0 -19 7 -21 17 -4 19 32 25 43 7 12 -19 25
-10 19 14 -3 13 -1 27 6 31 7 4 14 -1 17 -14 4 -17 8 -19 19 -10 8 6 14 22 14
36 0 14 4 21 10 18 6 -3 10 -2 10 4 0 6 10 19 21 30 31 29 32 68 4 97 -28 28
-27 28 -42 13z m-93 -99 c0 -5 -4 -10 -10 -10 -5 0 -10 5 -10 10 0 6 5 10 10
10 6 0 10 -4 10 -10z"/>
<path d="M7556 7773 c-10 -10 -7 -63 3 -63 16 0 22 18 9 23 -10 3 -10 7 0 19
12 16 2 34 -12 21z"/>
<path d="M1130 7760 c0 -5 4 -10 9 -10 6 0 13 5 16 10 3 6 -1 10 -9 10 -9 0
-16 -4 -16 -10z"/>
<path d="M1008 7743 c7 -3 16 -2 19 1 4 3 -2 6 -13 5 -11 0 -14 -3 -6 -6z"/>
<path d="M7472 7738 c-15 -15 -16 -28 -2 -28 6 0 10 6 10 14 0 8 6 17 13 19 6
3 7 6 2 6 -6 1 -16 -4 -23 -11z"/>
<path d="M8090 7701 c0 -10 7 -21 15 -25 8 -3 15 -14 15 -24 0 -10 7 -39 16
-65 11 -32 22 -47 37 -50 18 -4 18 -5 -5 -6 -31 -1 -45 -18 -29 -34 6 -6 11
-19 11 -29 0 -10 5 -18 10 -18 6 0 10 5 10 10 0 6 7 10 15 10 21 0 19 18 -2
23 -10 3 5 3 32 0 48 -4 49 -4 30 13 -20 16 -20 16 5 9 14 -4 44 -7 67 -7 24
0 45 -4 48 -9 10 -14 25 -10 19 5 -3 8 -26 17 -52 22 -26 4 -39 9 -29 11 20 5
23 23 3 23 -7 0 -19 14 -26 30 -11 28 -21 35 -43 31 -5 -1 -25 3 -45 9 -27 7
-42 19 -56 44 -22 40 -46 55 -46 27z m110 -107 c0 -2 -9 -4 -21 -4 -11 0 -18
4 -14 10 5 8 35 3 35 -6z m50 2 c0 -2 -7 -9 -15 -16 -12 -10 -15 -10 -15 4 0
9 7 16 15 16 8 0 15 -2 15 -4z"/>
<path d="M7680 7696 c0 -9 5 -16 10 -16 6 0 10 4 10 9 0 6 -4 13 -10 16 -5 3
-10 -1 -10 -9z"/>
<path d="M8028 7673 c-2 -30 -7 -37 -20 -35 -17 3 -22 -8 -19 -36 1 -7 -6 -15
-16 -19 -10 -4 -27 -15 -38 -25 -10 -10 -25 -16 -32 -14 -6 3 -15 -5 -19 -17
-4 -12 -12 -25 -18 -29 -6 -4 3 -8 19 -8 17 0 36 -4 44 -9 12 -8 12 -12 0 -33
-14 -24 -14 -88 0 -88 5 0 14 14 21 30 13 31 24 37 35 20 3 -5 -1 -10 -9 -10
-23 0 -20 -32 6 -66 12 -16 23 -31 25 -33 4 -6 33 20 33 30 0 5 -6 6 -14 3
-19 -7 -37 27 -29 55 4 17 10 20 27 15 11 -4 24 -11 27 -16 7 -11 51 5 68 26
18 21 -3 21 -24 0 -20 -20 -46 -3 -44 30 2 20 2 20 6 -1 2 -13 11 -23 19 -23
15 0 16 6 5 34 -5 13 -2 25 11 38 18 18 18 20 1 49 -10 16 -19 25 -21 19 -5
-15 -22 -12 -22 5 0 8 7 15 15 15 11 0 15 11 15 43 0 61 -10 87 -31 87 -13 0
-19 -9 -21 -37z m36 -28 c3 -8 1 -15 -4 -15 -6 0 -10 7 -10 15 0 8 2 15 4 15
2 0 6 -7 10 -15z m-41 -60 c-3 -8 -9 -15 -14 -15 -5 0 -9 -7 -9 -15 0 -8 7
-15 16 -15 8 0 12 -5 8 -11 -4 -7 -11 -6 -22 4 -13 13 -13 20 -2 46 12 30 35
35 23 6z m-63 -50 c0 -8 5 -15 10 -15 6 0 10 -8 10 -17 0 -15 -4 -13 -20 7
-22 28 -25 40 -10 40 6 0 10 -7 10 -15z m-40 -25 c0 -5 -4 -10 -10 -10 -5 0
-10 5 -10 10 0 6 5 10 10 10 6 0 10 -4 10 -10z m130 -14 c0 -11 -19 -15 -25
-6 -3 5 1 10 9 10 9 0 16 -2 16 -4z m-40 -37 c6 -11 9 -25 6 -32 -2 -7 -5 -4
-5 6 -1 9 -5 17 -10 17 -5 0 -11 7 -15 15 -8 23 12 18 24 -6z"/>
<path d="M7565 7691 c-3 -5 -1 -12 5 -16 5 -3 10 1 10 9 0 18 -6 21 -15 7z"/>
<path d="M4905 7680 c4 -6 11 -8 16 -5 14 9 11 15 -7 15 -8 0 -12 -5 -9 -10z"/>
<path d="M7541 7656 c-7 -8 -11 -23 -8 -33 4 -15 5 -14 6 4 0 12 7 23 14 26 6
2 9 7 6 11 -3 4 -12 0 -18 -8z"/>
<path d="M7717 7664 c-10 -10 -9 -52 2 -58 12 -8 22 34 12 51 -4 7 -10 10 -14
7z"/>
<path d="M7667 7613 c8 -52 23 -66 23 -21 0 19 -7 41 -15 48 -12 10 -13 6 -8
-27z"/>
<path d="M5041 7633 c10 -2 20 -14 23 -26 5 -18 8 -20 16 -7 11 17 -13 41 -39
39 -14 -1 -13 -2 0 -6z"/>
<path d="M5117 7602 c6 -23 38 -43 57 -36 20 8 8 34 -15 34 -10 0 -19 5 -19
10 0 6 -6 10 -14 10 -9 0 -12 -7 -9 -18z"/>
<path d="M7583 7606 c-9 -11 -7 -15 11 -18 19 -4 22 -1 18 14 -5 21 -13 22
-29 4z"/>
<path d="M593 7543 c-21 -8 -15 -26 7 -20 28 7 33 -6 8 -27 -29 -25 -4 -41 28
-18 12 10 18 19 13 20 -5 2 -9 15 -9 28 0 24 -17 30 -47 17z"/>
<path d="M7530 7509 c0 -5 5 -7 10 -4 6 3 10 8 10 11 0 2 -4 4 -10 4 -5 0 -10
-5 -10 -11z"/>
<path d="M7760 7503 c0 -12 5 -25 11 -28 19 -12 22 3 5 27 l-16 22 0 -21z"/>
<path d="M7700 7500 c0 -5 5 -10 11 -10 5 0 7 5 4 10 -3 6 -8 10 -11 10 -2 0
-4 -4 -4 -10z"/>
<path d="M7750 7456 c0 -8 5 -18 10 -21 6 -3 10 3 10 14 0 12 -4 21 -10 21 -5
0 -10 -6 -10 -14z"/>
<path d="M7480 7450 c0 -5 7 -10 15 -10 8 0 15 5 15 10 0 6 -7 10 -15 10 -8 0
-15 -4 -15 -10z"/>
<path d="M7715 7451 c-3 -5 -1 -12 5 -16 5 -3 10 1 10 9 0 18 -6 21 -15 7z"/>
<path d="M571 7427 c-1 -16 -8 -35 -16 -43 -17 -17 -20 -54 -5 -54 6 0 10 5
10 12 0 18 31 47 45 42 7 -3 16 -1 20 5 3 7 -2 11 -14 11 -12 0 -23 10 -29 28
l-10 27 -1 -28z"/>
<path d="M7821 7413 c0 -25 1 -26 9 -8 12 27 12 35 0 35 -5 0 -10 -12 -9 -27z"/>
<path d="M630 7421 c0 -10 19 -25 25 -20 1 2 -3 10 -11 17 -8 7 -14 8 -14 3z"/>
<path d="M7730 7410 c0 -5 5 -10 10 -10 6 0 10 5 10 10 0 6 -4 10 -10 10 -5 0
-10 -4 -10 -10z"/>
<path d="M8185 7410 c-3 -5 2 -10 11 -10 14 0 15 -3 6 -12 -20 -20 -15 -48 9
-48 18 0 20 -4 14 -30 -6 -26 -4 -29 11 -23 14 5 16 3 11 -11 -5 -13 -1 -19
13 -23 11 -3 20 -9 20 -13 0 -4 8 -10 18 -14 9 -3 24 -9 32 -14 49 -29 60 -30
167 -24 17 1 38 8 45 15 7 8 20 16 28 20 9 3 10 6 3 6 -7 1 -13 5 -13 11 0 5
13 7 30 4 23 -5 30 -3 30 9 0 10 6 14 15 11 16 -7 19 4 7 22 -14 20 -72 43
-130 49 -73 8 -92 14 -92 27 0 10 -40 47 -52 48 -5 0 -8 -7 -8 -15 0 -8 -4
-15 -10 -15 -5 0 -10 7 -10 15 0 18 -1 18 -33 6 -20 -8 -23 -15 -19 -41 4 -29
2 -31 -19 -28 -20 2 -24 8 -21 34 3 24 -2 33 -23 42 -31 15 -32 15 -40 2z"/>
<path d="M7877 7403 c-4 -3 -7 -15 -7 -26 0 -16 3 -17 15 -7 8 7 15 19 15 26
0 15 -12 19 -23 7z"/>
<path d="M650 7375 c-7 -8 -23 -15 -36 -15 -13 0 -24 -4 -24 -10 0 -5 9 -10
19 -10 11 0 23 5 26 10 3 6 20 10 36 10 20 0 29 4 27 13 -7 18 -33 20 -48 2z"/>
<path d="M7715 7370 c-3 -5 1 -10 9 -10 9 0 16 5 16 10 0 6 -4 10 -9 10 -6 0
-13 -4 -16 -10z"/>
<path d="M7773 7363 c-15 -5 -17 -23 -4 -23 5 0 11 7 15 15 3 8 4 15 3 14 -1
0 -8 -3 -14 -6z"/>
<path d="M710 7346 c0 -8 -6 -17 -12 -19 -8 -3 -6 -6 5 -6 11 -1 17 6 17 19 0
11 -2 20 -5 20 -3 0 -5 -6 -5 -14z"/>
<path d="M7628 7343 c7 -3 16 -2 19 1 4 3 -2 6 -13 5 -11 0 -14 -3 -6 -6z"/>
<path d="M7801 7337 c0 -11 -11 -21 -23 -25 l-22 -5 24 -9 c29 -11 33 -7 27
29 -2 15 -5 20 -6 10z"/>
<path d="M7901 7331 c-9 -6 -10 -11 -2 -15 6 -4 15 -5 20 -1 5 3 21 0 35 -6
32 -15 46 -4 20 16 -21 16 -52 19 -73 6z"/>
<path d="M7865 7290 c-3 -5 -1 -10 4 -10 6 0 11 5 11 10 0 6 -2 10 -4 10 -3 0
-8 -4 -11 -10z"/>
<path d="M7937 7293 c-4 -3 -7 -14 -7 -23 0 -13 8 -15 36 -12 34 4 36 3 31
-17 -4 -16 -1 -21 13 -21 10 0 23 7 30 15 10 12 7 15 -14 21 -14 3 -26 10 -26
14 0 5 -9 6 -20 3 -14 -4 -20 0 -20 11 0 16 -12 21 -23 9z"/>
<path d="M8020 7291 c0 -6 5 -13 10 -16 6 -3 10 1 10 9 0 9 -4 16 -10 16 -5 0
-10 -4 -10 -9z"/>
<path d="M7775 7270 c-3 -5 1 -10 10 -10 9 0 13 5 10 10 -3 6 -8 10 -10 10 -2
0 -7 -4 -10 -10z"/>
<path d="M7910 7241 c0 -5 5 -13 10 -16 6 -3 10 -2 10 4 0 5 -4 13 -10 16 -5
3 -10 2 -10 -4z"/>
<path d="M9225 7211 c-3 -5 4 -28 16 -50 34 -66 54 -47 25 24 -15 35 -29 44
-41 26z"/>
<path d="M590 7129 c0 -45 24 -70 45 -48 12 12 10 19 -15 49 l-29 35 -1 -36z"/>
<path d="M8800 7150 c0 -5 -30 -10 -67 -12 -60 -3 -69 -6 -80 -28 -16 -33 -41
-50 -74 -50 -15 0 -29 -7 -33 -15 -3 -8 -12 -12 -21 -9 -10 4 -15 0 -15 -15 0
-12 -6 -21 -15 -21 -18 0 -20 -17 -2 -23 6 -2 9 -8 4 -12 -4 -5 -18 -2 -32 5
-22 12 -27 11 -49 -14 -14 -14 -29 -26 -33 -25 -24 4 -43 -3 -43 -16 0 -8 -7
-15 -16 -15 -8 0 -12 -5 -8 -11 4 -8 9 -8 17 0 15 15 27 14 27 -4 0 -8 9 -24
20 -35 23 -23 25 -41 9 -57 -20 -20 -2 -43 34 -43 36 0 74 -29 49 -37 -25 -9
1 -23 43 -23 40 0 45 -3 51 -26 4 -14 4 -45 1 -69 -4 -39 -1 -46 19 -60 18
-11 24 -25 24 -51 0 -27 7 -43 30 -64 30 -28 39 -50 20 -50 -5 0 -10 -7 -10
-15 0 -8 5 -15 10 -15 6 0 10 7 10 15 0 8 3 15 6 15 10 0 34 -28 34 -40 0 -7
8 -9 21 -5 14 5 19 3 15 -3 -3 -6 3 -17 15 -26 12 -8 18 -19 14 -25 -3 -6 -1
-11 4 -11 14 0 14 43 1 56 -6 6 -8 19 -4 29 6 15 9 13 19 -11 11 -29 12 -29
23 -7 7 13 8 24 3 27 -5 4 2 29 15 56 13 27 24 54 24 60 0 6 25 22 55 36 30
14 57 35 60 45 4 10 13 19 20 19 8 0 22 11 31 25 12 18 22 23 38 19 15 -3 31
3 49 20 l27 25 6 -26 c8 -31 -18 -55 -51 -47 -28 7 -60 -28 -52 -57 7 -27 -39
-93 -60 -85 -8 3 -21 -1 -29 -9 -9 -8 -24 -15 -35 -15 -10 0 -19 -5 -19 -11 0
-6 9 -8 20 -4 23 7 26 -6 8 -35 -11 -17 -10 -22 1 -29 8 -5 11 -16 8 -25 -6
-14 -3 -15 13 -6 23 12 24 15 9 42 -8 15 -8 19 0 14 7 -4 11 1 11 13 0 21 8
25 32 16 18 -7 12 -65 -8 -81 -11 -9 -11 -14 -1 -29 12 -15 16 -16 35 -4 12 8
27 29 33 46 6 18 14 33 19 33 4 0 11 12 14 26 6 21 11 25 32 21 18 -3 24 -1
20 9 -3 8 3 18 12 23 23 12 21 66 -2 90 -15 14 -18 14 -26 1 -7 -12 -12 -12
-29 4 -26 24 -17 40 20 32 17 -3 31 -1 36 7 7 12 13 -7 32 -113 5 -25 12 -60
16 -79 6 -25 5 -32 -3 -27 -7 4 -12 14 -12 22 0 11 -5 12 -17 5 -10 -5 -20 -9
-23 -9 -28 -2 -39 -16 -33 -44 5 -24 3 -29 -7 -23 -10 6 -11 2 -6 -19 7 -29
-16 -48 -36 -28 -17 17 -41 -14 -36 -47 3 -20 0 -27 -8 -24 -15 6 -26 -23 -15
-45 4 -9 14 -30 22 -47 8 -16 25 -32 39 -35 16 -4 25 -13 25 -25 0 -12 10 -24
24 -31 l25 -10 -22 -22 c-17 -17 -21 -33 -21 -72 1 -39 -3 -56 -20 -74 -22
-23 -20 -56 3 -56 6 0 3 -7 -7 -14 -15 -12 -15 -15 -2 -26 8 -7 20 -10 28 -7
7 3 22 -15 37 -44 15 -32 30 -49 42 -49 10 0 32 -12 48 -27 25 -22 30 -33 28
-62 -2 -28 1 -36 17 -39 11 -3 31 -9 45 -14 l25 -10 -24 -9 c-17 -7 -27 -6
-32 3 -7 10 -11 10 -21 0 -9 -9 -9 -12 5 -12 9 0 17 -4 17 -10 0 -5 12 -10 27
-10 14 0 23 -3 19 -7 -9 -9 -76 -12 -76 -4 0 4 -16 15 -35 25 -19 11 -35 23
-35 29 0 5 -7 4 -15 -3 -9 -7 -25 -10 -42 -5 -23 5 -25 4 -14 -9 11 -13 11
-17 -2 -22 -9 -3 -13 -12 -10 -21 3 -8 -9 -29 -29 -51 -20 -20 -41 -53 -47
-74 -7 -20 -22 -47 -35 -60 -35 -35 -44 -58 -51 -128 -3 -36 -11 -100 -17
-142 -17 -126 13 -297 61 -341 33 -30 109 -53 124 -38 13 13 57 15 57 2 0 -5
-3 -11 -7 -14 -5 -2 -2 -2 5 -1 7 2 16 -4 19 -14 18 -48 87 -71 153 -51 l40
12 0 493 -1 493 -22 4 -22 4 23 2 c13 0 22 7 22 17 0 11 -6 14 -20 9 -14 -5
-20 -2 -20 9 0 9 -4 16 -9 16 -15 0 -25 -21 -13 -29 6 -4 5 -11 -4 -19 -15
-14 -18 -7 -15 31 2 10 -5 17 -16 18 -12 0 -9 4 9 11 21 7 33 6 50 -6 28 -20
38 -20 38 -2 0 19 -32 29 -87 28 -32 -1 -43 3 -43 14 0 12 9 14 48 9 26 -4 55
-9 65 -12 15 -4 17 3 17 47 0 34 -6 60 -19 78 -10 15 -22 49 -25 75 -5 40 -14
56 -53 96 -53 53 -81 71 -112 71 -12 0 -21 5 -21 10 0 6 5 10 11 10 6 0 9 6 7
13 -3 6 -10 12 -16 12 -29 0 -11 21 24 28 50 11 74 11 102 2 19 -6 22 -4 22
19 0 32 16 34 26 4 4 -13 10 -25 14 -28 4 -3 14 -18 23 -35 16 -29 16 -27 17
75 0 92 -3 111 -25 155 -13 28 -25 57 -25 65 0 8 -7 24 -15 34 -8 11 -21 44
-30 75 -31 114 -39 136 -52 152 -7 8 -13 22 -13 29 0 18 -58 161 -74 183 -13
17 -46 14 -46 -4 0 -5 -7 -9 -15 -9 -8 0 -15 6 -15 14 0 7 -6 19 -13 25 -8 6
-20 29 -27 52 -8 22 -24 50 -37 62 -12 12 -23 30 -23 40 0 9 -6 17 -14 17 -7
0 -25 11 -41 26 -20 19 -26 32 -22 52 4 21 -3 33 -36 64 -43 38 -57 46 -57 28z
m-305 -220 c-3 -5 -10 -10 -16 -10 -5 0 -9 5 -9 10 0 6 7 10 16 10 8 0 12 -4
9 -10z m-55 -21 c0 -5 -4 -9 -10 -9 -5 0 -10 7 -10 16 0 8 5 12 10 9 6 -3 10
-10 10 -16z m677 -231 c-3 -7 -5 -2 -5 12 0 14 2 19 5 13 2 -7 2 -19 0 -25z
m-432 -78 c3 -5 -3 -10 -15 -10 -12 0 -18 5 -15 10 3 6 10 10 15 10 5 0 12 -4
15 -10z m122 -182 c-3 -7 -5 -2 -5 12 0 14 2 19 5 13 2 -7 2 -19 0 -25z m230
0 c-3 -8 -6 -5 -6 6 -1 11 2 17 5 13 3 -3 4 -12 1 -19z m217 -182 c21 -49 20
-60 -2 -38 -24 24 -46 96 -37 119 7 15 9 13 15 -12 4 -16 14 -47 24 -69z
m-144 -15 c23 -44 -20 -69 -53 -31 -22 26 -22 37 1 43 33 9 41 7 52 -12z m60
-28 c-1 -19 -22 -53 -34 -53 -3 0 -6 16 -6 35 0 28 4 35 20 35 13 0 20 -7 20
-17z m-80 -75 c0 -12 -12 -9 -34 7 -10 7 -15 19 -11 25 7 12 45 -15 45 -32z
m100 -22 c0 -7 -6 -19 -14 -25 -11 -9 -15 -8 -20 5 -4 10 -1 21 6 26 19 12 28
10 28 -6z m79 -701 c1 -2 1 -9 -1 -16 -3 -8 -8 -8 -19 3 -8 8 -21 18 -29 21
-8 4 -2 4 15 1 16 -3 32 -7 34 -9z m-54 -65 c18 -7 18 -8 -7 -15 -40 -10 -37
-42 6 -60 43 -18 47 -25 40 -62 -4 -19 -15 -33 -32 -40 -31 -13 -128 -3 -124
12 1 6 7 25 13 43 13 40 8 48 -20 32 -28 -14 -28 4 0 50 19 31 22 32 34 17 11
-15 14 -15 35 8 26 27 26 27 55 15z m-70 -440 c3 -5 1 -10 -4 -10 -6 0 -11 5
-11 10 0 6 2 10 4 10 3 0 8 -4 11 -10z"/>
<path d="M395 7140 c4 -6 11 -8 16 -5 14 9 11 15 -7 15 -8 0 -12 -5 -9 -10z"/>
<path d="M1610 7122 c0 -5 7 -13 16 -16 10 -4 14 -1 12 6 -5 15 -28 23 -28 10z"/>
<path d="M9300 7068 c0 -15 42 -78 53 -78 11 0 9 8 -18 50 -26 41 -35 48 -35
28z"/>
<path d="M1550 7045 c0 -8 7 -15 16 -15 14 0 14 3 4 15 -7 8 -14 15 -16 15 -2
0 -4 -7 -4 -15z"/>
<path d="M1651 7044 c0 -11 3 -14 6 -6 3 7 2 16 -1 19 -3 4 -6 -2 -5 -13z"/>
<path d="M9005 6981 c-10 -17 31 -33 44 -17 6 7 8 16 4 19 -10 10 -41 8 -48
-2z"/>
<path d="M8064 6959 c-3 -6 -1 -16 5 -22 8 -8 11 -5 11 11 0 24 -5 28 -16 11z"/>
<path d="M7970 6950 c0 -5 5 -10 10 -10 6 0 10 5 10 10 0 6 -4 10 -10 10 -5 0
-10 -4 -10 -10z"/>
<path d="M8015 6950 c3 -5 13 -10 21 -10 8 0 14 5 14 10 0 6 -9 10 -21 10 -11
0 -17 -4 -14 -10z"/>
<path d="M8300 6920 c0 -5 5 -10 10 -10 6 0 10 5 10 10 0 6 -4 10 -10 10 -5 0
-10 -4 -10 -10z"/>
<path d="M1160 6916 c0 -29 80 -136 101 -136 15 0 10 28 -6 42 -38 32 -45 40
-40 49 4 5 17 9 31 9 22 0 23 2 12 20 -10 15 -24 20 -55 20 -24 0 -43 -2 -43
-4z"/>
<path d="M881 6894 c0 -11 3 -14 6 -6 3 7 2 16 -1 19 -3 4 -6 -2 -5 -13z"/>
<path d="M8220 6895 c0 -8 2 -15 4 -15 2 0 6 7 10 15 3 8 1 15 -4 15 -6 0 -10
-7 -10 -15z"/>
<path d="M9072 6880 c1 -13 9 -25 16 -28 17 -5 15 23 -4 39 -14 11 -15 10 -12
-11z"/>
<path d="M1360 6856 c0 -9 5 -16 10 -16 6 0 10 4 10 9 0 6 -4 13 -10 16 -5 3
-10 -1 -10 -9z"/>
<path d="M880 6830 c0 -11 -7 -31 -15 -43 -8 -13 -12 -32 -8 -45 l6 -23 28 27
c26 25 56 81 48 88 -2 2 -16 6 -31 10 -24 5 -28 3 -28 -14z"/>
<path d="M1375 6810 c-4 -6 -11 -7 -17 -4 -13 8 -59 -16 -52 -28 14 -23 104 5
104 33 0 12 -27 12 -35 -1z"/>
<path d="M8176 6781 c-4 -7 -5 -15 -2 -18 9 -9 19 4 14 18 -4 11 -6 11 -12 0z"/>
<path d="M6770 6750 c-13 -8 -12 -10 3 -10 9 0 17 5 17 10 0 12 -1 12 -20 0z"/>
<path d="M696 6728 c-23 -32 -20 -41 11 -33 33 8 46 25 31 42 -15 18 -25 16
-42 -9z"/>
<path d="M1550 6690 c0 -5 4 -10 9 -10 6 0 13 5 16 10 3 6 -1 10 -9 10 -9 0
-16 -4 -16 -10z"/>
<path d="M1900 6666 c0 -9 5 -16 10 -16 6 0 10 4 10 9 0 6 -4 13 -10 16 -5 3
-10 -1 -10 -9z"/>
<path d="M545 6640 c3 -5 11 -10 16 -10 6 0 7 5 4 10 -3 6 -11 10 -16 10 -6 0
-7 -4 -4 -10z"/>
<path d="M2295 6640 c-3 -5 -1 -10 4 -10 6 0 11 5 11 10 0 6 -2 10 -4 10 -3 0
-8 -4 -11 -10z"/>
<path d="M743 6583 c-18 -6 -16 -33 1 -33 15 0 30 27 18 33 -4 3 -13 2 -19 0z"/>
<path d="M998 6573 c7 -3 16 -2 19 1 4 3 -2 6 -13 5 -11 0 -14 -3 -6 -6z"/>
<path d="M820 6544 c0 -23 2 -24 15 -10 8 8 15 17 15 19 0 3 -7 7 -15 11 -11
4 -15 -2 -15 -20z"/>
<path d="M1972 6528 c-17 -17 -15 -45 3 -51 11 -5 13 0 9 23 -5 24 -3 29 17
33 21 4 21 4 4 6 -12 0 -26 -4 -33 -11z"/>
<path d="M652 6489 c6 -62 73 -65 73 -3 0 26 -3 29 -38 32 -38 3 -38 3 -35
-29z"/>
<path d="M8981 6504 c-20 -24 -7 -27 20 -5 17 14 19 20 9 20 -8 0 -21 -7 -29
-15z"/>
<path d="M1592 6460 c0 -14 2 -19 5 -12 2 6 2 18 0 25 -3 6 -5 1 -5 -13z"/>
<path d="M23 6388 l-23 -11 0 -299 0 -299 35 -15 c20 -8 70 -19 113 -25 67 -9
82 -8 117 7 22 10 46 17 53 15 6 -1 12 2 12 8 0 5 19 20 43 34 38 23 71 69 91
130 7 21 36 23 36 2 0 -8 5 -15 10 -15 6 0 10 7 10 15 0 8 -3 15 -8 15 -16 0
-27 46 -19 81 6 26 4 46 -7 73 -9 21 -13 43 -10 48 3 5 -3 16 -15 24 -12 8
-21 21 -21 27 0 7 -14 29 -31 50 -17 20 -27 42 -24 47 4 7 -2 9 -19 4 -16 -4
-26 -2 -26 4 0 18 -82 67 -133 80 -58 15 -154 15 -184 0z"/>
<path d="M8880 6350 c0 -5 5 -10 10 -10 6 0 10 5 10 10 0 6 -4 10 -10 10 -5 0
-10 -4 -10 -10z"/>
<path d="M8877 6279 c8 -8 16 -8 30 0 16 9 14 10 -11 11 -22 0 -27 -3 -19 -11z"/>
<path d="M8940 6272 c0 -4 5 -13 12 -20 16 -16 28 -15 28 2 0 8 -7 17 -16 20
-21 8 -24 8 -24 -2z"/>
<path d="M767 6232 c-37 -18 -73 -41 -79 -52 -7 -11 -18 -20 -25 -20 -7 0 -13
-5 -13 -10 0 -6 -11 -15 -24 -20 -16 -6 -33 -27 -46 -57 -11 -26 -25 -50 -30
-53 -5 -3 -10 -35 -12 -70 -2 -58 2 -73 37 -141 43 -86 96 -149 140 -168 97
-42 148 -53 208 -46 127 14 228 84 283 194 24 48 26 59 20 139 -6 102 -9 123
-19 139 -10 15 19 36 42 30 19 -5 38 18 23 27 -9 5 -71 19 -95 21 -9 1 -30 14
-46 29 -39 38 -200 97 -254 94 -23 -2 -72 -18 -110 -36z m-39 -297 c11 -10 11
-17 2 -34 -6 -12 -16 -19 -22 -15 -5 4 -14 0 -19 -7 -7 -11 -11 -10 -23 6 -19
24 -20 62 -3 68 16 7 49 -2 65 -18z"/>
<path d="M8730 6260 c0 -5 4 -10 9 -10 6 0 13 5 16 10 3 6 -1 10 -9 10 -9 0
-16 -4 -16 -10z"/>
<path d="M8650 6235 c0 -8 4 -15 10 -15 5 0 7 7 4 15 -4 8 -8 15 -10 15 -2 0
-4 -7 -4 -15z"/>
<path d="M8876 6228 c-5 -22 -6 -23 -21 -3 -15 19 -16 18 -9 -14 4 -23 2 -36
-7 -42 -10 -6 -11 -11 -3 -19 7 -7 17 -4 32 10 25 24 46 17 39 -11 -4 -15 0
-19 24 -19 28 0 29 2 29 46 0 37 -3 44 -13 35 -15 -12 -37 3 -37 26 0 22 -27
14 -34 -9z"/>
<path d="M8671 6181 c-8 -14 -7 -20 4 -25 11 -4 15 2 15 19 0 30 -6 32 -19 6z"/>
<path d="M4052 6060 c0 -14 2 -19 5 -12 2 6 2 18 0 25 -3 6 -5 1 -5 -13z"/>
<path d="M8970 6053 c0 -3 12 -16 26 -30 29 -27 54 -21 29 7 -16 17 -55 34
-55 23z"/>
<path d="M8753 6014 c-9 -25 13 -40 26 -16 8 16 7 21 -5 26 -8 3 -17 -1 -21
-10z"/>
<path d="M8820 5970 c0 -5 5 -10 11 -10 5 0 7 5 4 10 -3 6 -8 10 -11 10 -2 0
-4 -4 -4 -10z"/>
<path d="M8975 5960 c-13 -14 -21 -17 -31 -9 -7 6 -14 6 -18 1 -7 -12 4 -71
15 -77 13 -8 22 16 11 27 -12 12 0 27 36 47 12 6 22 16 22 21 0 16 -16 11 -35
-10z"/>
<path d="M8781 5954 c0 -11 3 -14 6 -6 3 7 2 16 -1 19 -3 4 -6 -2 -5 -13z"/>
<path d="M9050 5955 c0 -10 7 -15 18 -13 21 4 19 22 -2 26 -10 2 -16 -3 -16
-13z"/>
<path d="M8860 5916 c0 -9 5 -16 10 -16 6 0 10 4 10 9 0 6 -4 13 -10 16 -5 3
-10 -1 -10 -9z"/>
<path d="M8805 5910 c-3 -5 -1 -10 4 -10 6 0 11 5 11 10 0 6 -2 10 -4 10 -3 0
-8 -4 -11 -10z"/>
<path d="M8986 5912 c-6 -11 0 -111 8 -119 3 -4 6 6 6 20 0 15 6 27 13 27 8 0
7 4 -3 10 -12 8 -13 13 -3 29 10 15 9 22 -2 31 -7 6 -16 7 -19 2z"/>
<path d="M8865 5871 c-17 -7 -15 -9 17 -20 38 -13 48 -27 48 -67 0 -16 6 -24
18 -24 14 0 15 2 2 10 -12 8 -13 13 -2 30 6 11 12 26 12 34 0 15 -27 30 -47
27 -7 -1 -13 3 -13 9 0 12 -7 12 -35 1z"/>
<path d="M8990 5720 c0 -5 5 -10 10 -10 6 0 10 -13 10 -28 0 -16 3 -32 8 -36
4 -4 7 -12 7 -17 0 -5 4 -10 10 -11 15 -5 15 65 -1 90 -15 22 -44 31 -44 12z"/>
<path d="M8840 5686 c0 -9 5 -16 10 -16 6 0 10 4 10 9 0 6 -4 13 -10 16 -5 3
-10 -1 -10 -9z"/>
<path d="M9060 5680 c0 -5 7 -10 15 -10 8 0 15 5 15 10 0 6 -7 10 -15 10 -8 0
-15 -4 -15 -10z"/>
<path d="M460 5660 c0 -5 7 -10 15 -10 8 0 15 5 15 10 0 6 -7 10 -15 10 -8 0
-15 -4 -15 -10z"/>
<path d="M8964 5649 c-3 -6 -1 -16 5 -22 8 -8 11 -5 11 11 0 24 -5 28 -16 11z"/>
<path d="M9118 5613 c7 -3 16 -2 19 1 4 3 -2 6 -13 5 -11 0 -14 -3 -6 -6z"/>
<path d="M9011 5594 c0 -11 3 -14 6 -6 3 7 2 16 -1 19 -3 4 -6 -2 -5 -13z"/>
<path d="M9070 5591 c0 -5 7 -12 16 -15 22 -9 24 -8 18 9 -7 16 -34 21 -34 6z"/>
<path d="M9168 5593 c7 -3 16 -2 19 1 4 3 -2 6 -13 5 -11 0 -14 -3 -6 -6z"/>
<path d="M4338 5573 c6 -2 18 -2 25 0 6 3 1 5 -13 5 -14 0 -19 -2 -12 -5z"/>
<path d="M4210 5551 c-34 -11 -80 -36 -108 -61 -17 -14 -22 -25 -17 -40 5 -15
1 -26 -12 -35 -15 -12 -16 -17 -5 -34 18 -30 15 -40 -10 -34 -17 3 -19 2 -9
-5 13 -10 13 -11 -16 -131 -6 -23 -4 -24 28 -18 19 3 41 7 49 9 26 6 13 -51
-25 -109 -19 -29 -42 -53 -50 -53 -18 0 -19 12 -4 27 15 15 8 35 -8 25 -16
-10 -27 -92 -13 -92 5 0 10 -7 10 -15 0 -11 -8 -13 -32 -8 -29 6 -31 5 -20 -9
15 -18 52 -30 52 -17 0 5 11 9 23 9 20 0 24 -5 24 -31 0 -18 7 -37 16 -44 10
-7 17 -16 17 -20 0 -5 7 -17 16 -26 12 -13 16 -35 15 -75 0 -31 -3 -60 -6 -64
-3 -5 -1 -11 5 -15 5 -3 10 1 10 10 0 9 7 29 14 44 12 23 13 31 2 47 -17 26
-20 94 -4 94 8 0 6 5 -4 11 -10 5 -18 19 -18 31 0 20 1 20 18 5 16 -15 20 -15
34 -1 14 14 20 14 66 -6 64 -28 86 -51 78 -83 -3 -14 -34 -60 -69 -103 -83
-103 -97 -150 -32 -108 16 10 34 14 50 10 30 -8 33 -22 6 -31 -12 -4 -18 -12
-14 -21 3 -8 -1 -22 -8 -30 -8 -10 -14 -44 -15 -86 -1 -48 -6 -74 -18 -87 -19
-21 -11 -33 19 -25 16 4 29 -2 45 -18 l22 -23 24 30 c13 17 24 34 24 38 0 13
43 4 47 -10 3 -7 -7 -15 -21 -19 -25 -6 -39 -44 -16 -44 15 0 12 -22 -6 -59
-18 -36 -6 -63 27 -58 29 5 39 19 47 68 5 28 13 43 21 41 38 -8 58 61 21 73
-34 11 -61 46 -54 69 4 12 24 39 46 60 21 22 38 46 37 55 -2 28 1 36 9 23 14
-21 77 -26 113 -8 17 9 42 16 54 16 13 0 26 7 29 16 3 8 2 13 -2 10 -4 -2 -14
9 -21 25 -13 29 -13 29 -97 29 -94 0 -139 -16 -154 -54 -8 -22 -54 -41 -72
-29 -12 6 -10 33 2 33 6 0 15 12 20 26 7 16 16 24 24 21 15 -6 26 12 26 44 0
25 -26 24 -40 -1 -13 -25 -40 -26 -40 -2 0 26 20 42 52 42 15 0 28 4 28 9 0 5
9 13 21 16 19 7 20 7 2 21 -10 8 -13 13 -6 14 7 0 19 16 27 35 9 20 26 39 41
45 14 5 25 12 25 15 0 17 -22 45 -35 45 -8 0 -15 5 -15 10 0 7 -6 7 -19 0 -11
-5 -29 -10 -40 -10 -22 0 -30 -33 -11 -45 18 -11 10 -25 -15 -25 -13 0 -36 12
-50 26 -24 24 -25 29 -15 55 7 16 21 31 31 34 10 4 31 25 47 48 32 48 59 56
54 17 -2 -14 -10 -30 -18 -36 -20 -16 -17 -34 6 -34 10 0 25 10 31 23 7 12 19
27 28 34 9 6 13 15 8 19 -4 4 -1 17 7 29 13 20 12 27 -9 72 -14 28 -29 62 -34
76 l-10 27 -34 -23 c-19 -12 -41 -34 -50 -49 -17 -30 -56 -40 -73 -19 -12 16
-49 22 -124 21 l-55 0 28 25 c15 14 23 25 18 25 -6 0 -11 4 -11 8 0 4 27 14
60 20 60 13 120 55 120 84 0 9 -3 9 -12 0 -8 -8 -19 -8 -44 3 -25 10 -41 11
-69 2 -24 -7 -39 -7 -46 0 -15 15 0 42 20 36 21 -5 34 10 50 57 8 23 8 36 1
38 -21 7 -10 40 18 50 26 10 25 10 -13 10 -22 0 -51 -3 -65 -7z m123 -425 c-6
-30 -37 -60 -55 -53 -9 4 -8 6 4 6 10 1 19 13 23 34 9 40 14 49 24 42 5 -2 6
-16 4 -29z m187 -36 c0 -5 -2 -10 -4 -10 -3 0 -8 5 -11 10 -3 6 -1 10 4 10 6
0 11 -4 11 -10z m-370 -20 c0 -5 -5 -10 -11 -10 -8 0 -7 -5 2 -16 10 -13 10
-17 -2 -25 -22 -14 -59 -11 -59 6 0 17 39 55 57 55 7 0 13 -4 13 -10z m427
-476 c-3 -3 -12 -4 -19 -1 -8 3 -5 6 6 6 11 1 17 -2 13 -5z m-137 -104 c0 -5
-10 -10 -22 -10 -19 0 -20 2 -8 10 19 13 30 13 30 0z"/>
<path d="M9030 5520 c0 -22 7 -25 29 -11 11 7 9 11 -8 20 -18 10 -21 9 -21 -9z"/>
<path d="M9090 5520 c0 -6 7 -10 15 -10 8 0 15 2 15 4 0 2 -7 6 -15 10 -8 3
-15 1 -15 -4z"/>
<path d="M9155 5520 c-3 -5 1 -10 10 -10 9 0 13 5 10 10 -3 6 -8 10 -10 10 -2
0 -7 -4 -10 -10z"/>
<path d="M8821 5504 c0 -11 3 -14 6 -6 3 7 2 16 -1 19 -3 4 -6 -2 -5 -13z"/>
<path d="M1415 5470 c3 -5 8 -10 11 -10 2 0 4 5 4 10 0 6 -5 10 -11 10 -5 0
-7 -4 -4 -10z"/>
<path d="M8925 5470 c3 -5 8 -10 11 -10 2 0 4 5 4 10 0 6 -5 10 -11 10 -5 0
-7 -4 -4 -10z"/>
<path d="M9050 5460 c0 -11 2 -20 5 -20 2 0 9 9 15 20 9 16 8 20 -5 20 -8 0
-15 -9 -15 -20z"/>
<path d="M8950 5439 c0 -5 5 -7 10 -4 6 3 10 8 10 11 0 2 -4 4 -10 4 -5 0 -10
-5 -10 -11z"/>
<path d="M94 5359 c-14 -16 -28 -20 -56 -17 l-38 4 0 -386 c1 -322 3 -382 14
-367 14 18 41 23 50 8 3 -4 31 -4 62 1 31 5 58 7 61 5 2 -2 4 -21 5 -41 1 -38
9 -44 26 -23 7 8 7 18 2 27 -21 32 -10 59 46 112 65 61 96 122 114 226 10 54
10 81 1 115 -6 25 -11 59 -11 74 0 16 -5 34 -11 40 -6 6 -12 33 -14 59 -2 36
-8 51 -23 57 -17 8 -52 70 -52 94 0 5 -11 15 -25 21 -20 9 -35 9 -68 -3 -37
-13 -43 -13 -53 0 -10 13 -14 12 -30 -6z m151 -49 c4 -6 -10 -10 -35 -10 -25
0 -39 4 -35 10 3 6 19 10 35 10 16 0 32 -4 35 -10z m26 -77 c13 -16 12 -17 -3
-4 -10 7 -18 15 -18 17 0 8 8 3 21 -13z"/>
<path d="M4692 5347 l-24 -25 64 -6 c34 -3 78 -5 96 -5 18 0 40 -7 48 -16 19
-18 57 -20 52 -3 -7 19 -64 50 -112 60 -94 21 -100 21 -124 -5z"/>
<path d="M4686 5233 c-16 -3 -40 -15 -54 -28 -25 -24 -25 -25 -7 -45 10 -11
26 -20 37 -20 15 0 16 -3 6 -19 -17 -27 1 -46 57 -60 58 -15 68 -14 61 4 -4
10 3 19 19 25 17 6 26 20 30 44 6 32 9 34 27 23 13 -8 18 -20 15 -39 -5 -37
28 -39 37 -3 5 21 -1 33 -31 63 -59 59 -98 69 -197 55z"/>
<path d="M505 5030 c-8 -13 4 -32 16 -25 12 8 12 35 0 35 -6 0 -13 -4 -16 -10z"/>
<path d="M4650 4940 l-25 -20 43 0 c36 0 43 3 40 17 -5 25 -29 26 -58 3z"/>
<path d="M4591 4830 c0 -33 1 -34 10 -11 6 16 6 28 -1 35 -7 7 -10 -1 -9 -24z"/>
<path d="M3716 4673 c-6 -75 1 -102 23 -89 17 11 15 166 -3 166 -9 0 -15 -22
-20 -77z"/>
<path d="M4534 4739 c-4 -7 -21 -9 -40 -6 -35 6 -42 -1 -22 -21 15 -15 48 -15
83 -2 23 9 25 13 15 25 -15 18 -26 19 -36 4z"/>
<path d="M4924 4679 c5 -13 11 -42 15 -64 4 -27 9 -36 15 -27 9 15 -11 99 -27
109 -7 4 -7 -2 -3 -18z"/>
<path d="M4730 4677 c0 -7 9 -22 19 -34 10 -11 21 -29 23 -39 4 -22 39 -30 67
-14 31 16 26 28 -23 51 -25 11 -50 27 -57 35 -14 18 -29 18 -29 1z"/>
<path d="M3773 4584 c-7 -18 6 -45 25 -52 17 -5 15 37 -3 54 -13 14 -16 14
-22 -2z"/>
<path d="M4927 4553 c-10 -9 -8 -33 2 -33 5 0 11 9 14 20 5 20 -3 26 -16 13z"/>
<path d="M260 4516 c0 -7 11 -16 25 -18 29 -6 30 -5 9 16 -19 20 -34 21 -34 2z"/>
<path d="M900 4478 c0 -20 1 -21 20 -3 11 10 20 20 20 22 0 1 -9 3 -20 3 -14
0 -20 -7 -20 -22z"/>
<path d="M343 4479 c-24 -9 -30 -24 -13 -34 15 -9 50 4 50 20 0 20 -12 24 -37
14z"/>
<path d="M3842 4440 c0 -14 2 -19 5 -12 2 6 2 18 0 25 -3 6 -5 1 -5 -13z"/>
<path d="M400 4420 c0 -5 7 -10 16 -10 8 0 12 5 9 10 -3 6 -10 10 -16 10 -5 0
-9 -4 -9 -10z"/>
<path d="M4070 4408 c0 -33 44 -123 68 -140 11 -7 26 -26 33 -41 8 -18 20 -27
36 -27 30 0 29 6 -9 67 -18 29 -48 77 -67 108 -35 57 -61 71 -61 33z"/>
<path d="M841 4344 c0 -11 3 -14 6 -6 3 7 2 16 -1 19 -3 4 -6 -2 -5 -13z"/>
<path d="M4357 4169 c-27 -4 -51 -10 -53 -12 -3 -2 4 -25 15 -51 21 -47 51
-63 51 -26 0 13 12 28 30 38 31 17 40 46 18 54 -7 2 -35 1 -61 -3z"/>
<path d="M4330 4030 c-7 -13 -9 -32 -4 -48 9 -30 11 -40 13 -62 1 -8 11 2 22
23 11 20 25 37 32 37 13 0 40 50 32 58 -3 3 -22 7 -44 9 -33 3 -42 0 -51 -17z"/>
<path d="M4031 3864 c0 -11 3 -14 6 -6 3 7 2 16 -1 19 -3 4 -6 -2 -5 -13z"/>
<path d="M4328 3859 c-18 -19 -25 -59 -10 -59 17 1 74 59 68 69 -11 17 -39 12
-58 -10z"/>
<path d="M3906 3831 c-20 -22 -14 -55 12 -66 14 -7 13 -9 -7 -14 -41 -11 -51
-92 -16 -127 18 -18 101 -54 126 -54 13 0 19 7 19 24 0 14 5 28 10 31 6 3 10
21 10 40 0 19 5 37 10 40 6 3 10 22 10 41 0 47 19 44 110 -19 53 -38 84 -68
105 -103 24 -41 35 -51 58 -52 15 0 27 4 27 9 0 5 16 9 35 9 32 0 34 2 24 19
-10 14 -9 23 4 41 15 22 15 24 -10 37 -14 7 -36 13 -49 13 -13 0 -24 4 -24 10
0 5 -14 17 -31 26 -22 11 -30 21 -26 34 5 18 3 18 -29 2 -32 -15 -35 -15 -56
5 -17 14 -34 19 -65 17 -27 -2 -46 2 -53 12 -7 8 -21 14 -31 14 -11 0 -19 5
-19 11 0 7 -8 9 -22 4 -31 -9 -70 -7 -82 5 -14 14 -21 13 -40 -9z"/>
<path d="M4400 3838 c0 -8 3 -18 8 -22 4 -4 7 -20 7 -34 0 -23 4 -27 30 -27
37 0 49 32 13 37 -14 2 -24 12 -28 27 -6 27 -30 41 -30 19z"/>
<path d="M3777 3153 c-11 -17 -15 -133 -6 -139 9 -5 14 15 22 76 5 39 -6 80
-16 63z"/>
<path d="M2837 2915 c-9 -89 -7 -177 3 -194 7 -13 9 -10 10 11 0 15 5 30 10
33 15 9 12 156 -4 185 -13 23 -14 21 -19 -35z"/>
<path d="M125 2890 c-4 -6 9 -10 31 -10 42 0 42 4 2 14 -15 3 -30 2 -33 -4z"/>
<path d="M60 2860 c0 -12 -13 -34 -30 -50 -34 -33 -27 -45 19 -27 25 9 31 17
31 40 0 15 7 30 15 33 20 8 9 24 -16 24 -12 0 -19 -7 -19 -20z"/>
<path d="M2803 2665 c-25 -37 -29 -60 -13 -70 5 -3 12 7 16 22 4 15 11 31 16
34 6 4 8 16 6 27 -3 19 -5 18 -25 -13z"/>
<path d="M5991 2634 c0 -11 3 -14 6 -6 3 7 2 16 -1 19 -3 4 -6 -2 -5 -13z"/>
<path d="M3745 2630 c3 -5 8 -10 11 -10 2 0 4 5 4 10 0 6 -5 10 -11 10 -5 0
-7 -4 -4 -10z"/>
<path d="M3752 2590 c0 -14 2 -19 5 -12 2 6 2 18 0 25 -3 6 -5 1 -5 -13z"/>
<path d="M2740 2529 c0 -29 -2 -31 -27 -25 -119 27 -234 12 -288 -35 -18 -16
-45 -57 -60 -91 -53 -119 -44 -323 20 -419 49 -75 162 -112 275 -91 57 10 63
10 98 -13 20 -14 42 -28 47 -33 6 -5 10 -48 9 -99 -1 -107 -19 -143 -73 -143
l-31 0 0 -110 0 -110 31 0 c17 0 37 -7 46 -15 13 -13 17 -14 27 -2 6 8 25 23
42 35 66 45 68 141 3 179 -30 17 -31 20 -25 73 3 30 9 75 15 100 31 151 33
169 27 262 -5 66 -15 120 -33 170 -23 65 -25 77 -14 116 13 49 3 102 -30 155
-10 18 -19 48 -19 67 0 24 -6 39 -20 48 -18 11 -20 10 -20 -19z m-88 -160 c10
-12 15 -25 12 -30 -6 -10 15 -83 22 -76 3 2 21 -1 42 -8 34 -12 37 -16 37 -53
0 -29 7 -48 24 -66 29 -31 24 -40 -14 -26 -15 6 -36 8 -45 5 -13 -4 -19 1 -24
19 -6 24 -51 42 -62 25 -3 -5 0 -9 6 -9 21 0 39 -61 27 -94 -17 -52 -36 -67
-80 -64 -65 5 -81 37 -85 165 -5 138 3 189 34 220 20 20 32 24 57 19 18 -3 40
-16 49 -27z m148 -844 c0 -2 -9 -9 -20 -15 -16 -9 -20 -8 -20 5 0 8 9 15 20
15 11 0 20 -2 20 -5z m47 -35 c12 -24 4 -61 -14 -67 -7 -3 -12 17 -15 47 -3
53 8 61 29 20z m-80 -62 c-2 -13 -4 -5 -4 17 -1 22 1 32 4 23 2 -10 2 -28 0
-40z"/>
<path d="M2608 2173 c7 -3 16 -2 19 1 4 3 -2 6 -13 5 -11 0 -14 -3 -6 -6z"/>
<path d="M4210 2539 c-80 -25 -120 -84 -120 -179 0 -46 -2 -50 -23 -50 -29 0
-53 -18 -62 -47 -8 -27 33 -73 64 -73 18 0 20 -8 23 -141 3 -134 4 -142 27
-160 30 -24 62 -24 92 0 23 18 24 26 27 159 l4 140 53 4 c64 5 85 20 85 59 0
35 -23 49 -96 56 -58 6 -59 8 -44 65 13 45 34 58 94 58 33 0 48 5 55 18 11 21
3 68 -15 83 -19 15 -122 21 -164 8z"/>
<path d="M2949 2521 l-24 -19 -3 -292 -2 -291 25 -24 c30 -31 83 -33 116 -6
23 19 24 23 21 164 -2 139 -1 146 20 171 32 35 68 42 99 18 23 -20 24 -26 29
-181 3 -95 9 -164 16 -171 6 -6 26 -13 45 -16 26 -4 41 0 62 16 l28 23 -3 191
c-3 166 -5 195 -22 222 -51 84 -180 87 -249 5 l-27 -33 0 106 c0 97 -2 106
-22 120 -31 22 -81 20 -109 -3z"/>
<path d="M6061 2514 c-20 -26 -21 -39 -21 -311 l0 -284 25 -24 c15 -16 36 -25
55 -25 19 0 40 9 55 25 24 23 25 28 25 170 0 142 1 147 25 170 30 31 75 33
101 4 16 -18 18 -38 19 -175 0 -151 1 -156 24 -175 32 -26 77 -24 106 6 24 23
25 28 25 174 0 171 -11 239 -46 281 -48 57 -150 52 -218 -10 l-41 -38 3 98 c3
89 2 100 -17 119 -32 32 -93 29 -120 -5z"/>
<path d="M9350 2500 c-7 -17 -22 -37 -33 -45 -12 -8 -26 -24 -32 -35 -9 -16
-39 -44 -132 -121 -7 -5 -13 -24 -13 -41 0 -25 3 -28 14 -19 11 9 15 9 19 -1
3 -9 13 -5 33 14 20 19 36 26 51 22 11 -3 24 -1 27 5 12 19 47 12 53 -9 3 -11
12 -20 19 -20 16 0 19 26 4 35 -15 10 -12 55 5 61 12 5 15 25 15 95 0 93 -9
110 -30 59z"/>
<path d="M4740 2490 c-19 -19 -20 -33 -20 -295 l0 -276 25 -24 c29 -30 64 -32
96 -6 23 18 23 20 20 220 -1 110 0 201 3 201 3 0 28 -71 56 -158 57 -180 69
-202 110 -202 40 0 52 21 114 199 28 83 55 153 59 157 4 4 7 -83 7 -194 l0
-201 28 -21 c21 -17 36 -21 67 -17 74 10 75 13 75 317 0 255 -1 268 -21 294
-19 24 -26 26 -103 26 -57 0 -88 -5 -103 -15 -15 -10 -34 -53 -60 -130 -20
-63 -40 -115 -43 -115 -3 0 -24 48 -45 108 -53 143 -62 152 -165 152 -67 0
-83 -3 -100 -20z"/>
<path d="M0 2420 c0 -5 8 -7 18 -4 15 5 15 4 -2 -10 -18 -15 -18 -16 6 -25 86
-32 205 -97 250 -136 92 -79 88 -72 88 -147 0 -65 2 -70 35 -102 28 -28 37
-31 43 -20 10 18 42 8 42 -13 0 -17 76 -111 125 -155 28 -25 30 -26 33 -8 4
25 -15 60 -33 60 -8 0 -15 8 -15 18 0 9 -16 31 -36 47 -20 17 -43 44 -51 60
-9 17 -24 38 -35 49 -26 24 -10 40 25 27 25 -10 27 -8 27 15 0 27 -33 78 -85
130 -16 17 -41 43 -54 57 -13 15 -38 34 -57 43 -19 9 -34 20 -34 24 0 24 -33
40 -67 34 -30 -6 -39 -3 -53 16 -9 12 -29 24 -45 25 -15 2 -32 8 -38 14 -14
14 -40 14 -32 1 3 -5 2 -10 -4 -10 -5 0 -13 5 -16 10 -8 13 -35 13 -35 0z
m395 -300 c3 -5 -1 -10 -10 -10 -9 0 -13 5 -10 10 3 6 8 10 10 10 2 0 7 -4 10
-10z"/>
<path d="M3761 2414 c0 -11 3 -14 6 -6 3 7 2 16 -1 19 -3 4 -6 -2 -5 -13z"/>
<path d="M710 2383 c0 -13 5 -23 10 -23 13 0 13 11 0 30 -8 12 -10 11 -10 -7z"/>
<path d="M3623 2380 c-75 -17 -126 -80 -144 -175 -22 -120 15 -256 83 -302
104 -70 301 -45 342 42 22 45 8 72 -39 81 -19 3 -35 12 -35 19 0 19 -27 26
-40 9 -10 -11 -10 -17 0 -30 22 -26 -11 -48 -71 -49 -44 0 -54 4 -69 25 -10
14 -21 40 -25 58 l-7 32 156 0 156 0 0 63 c0 88 -16 136 -59 177 -57 54 -151
73 -248 50z m110 -99 c27 -10 53 -70 43 -96 -6 -18 -141 -22 -151 -5 -10 17
15 79 38 95 25 17 37 18 70 6z"/>
<path d="M5631 2376 c-95 -31 -141 -113 -141 -251 0 -139 47 -222 144 -250 63
-19 110 -19 171 -1 98 30 145 111 145 251 0 125 -36 202 -113 242 -41 21 -153
26 -206 9z m138 -115 c24 -24 35 -91 29 -171 -6 -77 -31 -115 -78 -115 -47 0
-72 38 -78 115 -9 126 17 190 78 190 17 0 39 -9 49 -19z"/>
<path d="M6741 2380 c-74 -16 -123 -62 -123 -116 0 -33 20 -53 57 -55 46 -3
68 8 93 46 19 30 28 35 62 35 46 0 60 -18 60 -79 l0 -41 -48 0 c-56 0 -157
-25 -190 -46 -68 -44 -82 -156 -28 -213 51 -53 145 -61 228 -20 45 23 48 23
48 5 0 -19 76 -31 112 -17 16 6 30 21 34 35 3 14 4 101 3 194 -4 160 -5 170
-29 204 -13 20 -40 44 -60 54 -41 20 -155 27 -219 14z m157 -318 c4 -44 -19
-77 -62 -92 -45 -14 -86 3 -100 42 -17 48 43 89 124 85 32 -2 35 -5 38 -35z"/>
<path d="M723 2220 c-7 -22 -13 -68 -13 -102 0 -48 -6 -75 -27 -115 -25 -50
-25 -54 -10 -71 10 -10 17 -23 17 -29 0 -6 6 -16 13 -22 29 -24 38 27 35 207
-3 155 -4 169 -15 132z"/>
<path d="M9240 2206 c0 -9 5 -16 10 -16 6 0 10 4 10 9 0 6 -4 13 -10 16 -5 3
-10 -1 -10 -9z"/>
<path d="M530 2036 c0 -9 7 -16 16 -16 17 0 14 22 -4 28 -7 2 -12 -3 -12 -12z"/>
<path d="M546 1981 c-4 -7 -5 -15 -2 -18 9 -9 19 4 14 18 -4 11 -6 11 -12 0z"/>
<path d="M8398 1976 c-30 -22 -21 -36 12 -20 30 16 40 34 18 34 -7 0 -21 -7
-30 -14z"/>
<path d="M5157 1974 c-14 -15 -6 -50 14 -63 21 -12 22 -12 15 20 -7 37 -19 53
-29 43z"/>
<path d="M8384 1825 c-8 -13 -13 -29 -9 -35 4 -6 -2 -21 -13 -33 -26 -28 -43
-72 -36 -92 4 -8 17 -18 30 -21 13 -3 28 -12 35 -20 6 -8 27 -14 45 -14 32 0
33 1 22 20 -7 11 -20 19 -29 18 -9 -2 -16 2 -16 7 0 6 8 9 19 7 11 -2 18 3 18
12 0 9 -7 16 -15 16 -8 0 -15 5 -15 10 0 6 7 10 15 10 12 0 11 6 -7 31 -15 20
-22 43 -22 70 1 21 0 39 -2 39 -2 0 -11 -11 -20 -25z"/>
<path d="M651 1744 c0 -11 3 -14 6 -6 3 7 2 16 -1 19 -3 4 -6 -2 -5 -13z"/>
<path d="M8092 1700 c0 -14 2 -19 5 -12 2 6 2 18 0 25 -3 6 -5 1 -5 -13z"/>
<path d="M7573 1646 c-26 -27 -29 -36 -9 -36 18 0 38 26 34 44 -2 12 -8 10
-25 -8z"/>
<path d="M8049 1639 c-28 -37 -53 -145 -27 -118 7 8 18 25 24 39 6 14 17 37
24 51 6 15 10 34 8 44 -2 15 -8 12 -29 -16z"/>
<path d="M8493 1643 c-3 -10 -8 -21 -10 -25 -2 -5 1 -8 6 -8 6 0 11 9 11 19 0
11 6 22 13 24 9 4 9 6 -1 6 -7 1 -15 -7 -19 -16z"/>
<path d="M8525 1600 c-8 -13 9 -20 24 -11 10 6 9 10 -3 14 -8 3 -18 2 -21 -3z"/>
<path d="M3100 1470 l0 -110 25 0 c22 0 25 4 25 35 0 28 4 35 19 35 11 0 28
-15 40 -35 15 -25 27 -35 46 -35 30 0 31 6 6 44 -19 29 -19 30 0 54 26 33 24
68 -6 97 -21 22 -33 25 -90 25 l-65 0 0 -110z m115 35 c0 -15 -8 -21 -32 -23
-30 -3 -33 -1 -33 23 0 24 3 26 33 23 24 -2 32 -8 32 -23z"/>
<path d="M3470 1470 l0 -110 28 0 27 0 -1 98 c-1 126 0 122 -29 122 l-25 0 0
-110z"/>
<path d="M3730 1470 l0 -110 25 0 c23 0 24 4 27 61 l3 62 48 -62 c30 -37 56
-61 68 -61 18 0 19 8 19 110 0 103 -1 110 -20 110 -18 0 -20 -7 -20 -67 l-1
-68 -35 40 c-19 22 -42 52 -51 68 -11 17 -26 27 -40 27 -23 0 -23 -2 -23 -110z"/>
<path d="M4137 1573 c-4 -3 -7 -53 -7 -110 l0 -103 25 0 c22 0 25 4 25 34 0
18 6 39 14 45 11 10 20 3 47 -34 22 -31 39 -45 56 -45 30 0 29 5 -16 70 l-39
55 40 48 40 47 -27 0 c-19 0 -39 -14 -70 -47 l-44 -48 -1 48 c0 39 -3 47 -18
47 -10 0 -22 -3 -25 -7z"/>
<path d="M4734 1555 c-14 -22 -14 -27 -1 -54 14 -27 13 -31 -4 -47 -51 -46 18
-128 79 -95 11 6 34 8 51 5 24 -5 31 -3 31 9 0 9 -5 19 -10 22 -10 6 -8 23 7
63 3 7 -3 12 -15 12 -11 0 -23 -8 -26 -17 -6 -15 -8 -15 -23 -1 -14 15 -14 18
1 39 9 13 16 31 16 41 0 48 -78 66 -106 23z m64 -32 c-4 -22 -22 -20 -26 1 -2
10 3 16 13 16 10 0 15 -7 13 -17z m6 -125 c-8 -13 -31 -9 -44 7 -10 12 -10 18
1 31 11 14 15 13 30 -7 10 -13 15 -27 13 -31z"/>
<path d="M5300 1470 l0 -110 25 0 c23 0 25 4 25 40 l0 40 40 0 c33 0 40 3 40
20 0 17 -7 20 -40 20 -36 0 -40 3 -40 25 0 24 3 25 55 25 52 0 55 1 55 25 0
25 -1 25 -80 25 l-80 0 0 -110z"/>
<path d="M5698 1565 c-34 -19 -58 -63 -58 -106 0 -48 56 -99 109 -99 52 0 94
21 109 55 35 76 -8 154 -88 161 -29 3 -55 -1 -72 -11z m80 -31 c12 -4 29 -19
37 -35 36 -68 -51 -133 -105 -79 -29 29 -26 74 6 99 30 23 30 23 62 15z"/>
<path d="M6124 1570 c-34 -13 -64 -59 -64 -97 0 -73 43 -113 121 -113 33 0 48
7 75 34 36 36 43 71 24 120 -19 51 -99 79 -156 56z m90 -51 c50 -39 22 -119
-42 -119 -69 0 -92 104 -30 130 34 13 43 12 72 -11z"/>
<path d="M6490 1469 l0 -111 66 4 c60 4 70 7 95 36 33 37 37 77 13 123 -19 37
-67 59 -129 59 l-45 0 0 -111z m122 44 c38 -34 16 -96 -39 -109 -33 -9 -43 8
-43 74 0 52 0 52 32 52 17 0 40 -7 50 -17z"/>
<path d="M7711 1561 c-7 -5 -12 -14 -10 -20 3 -6 9 -7 18 -2 7 5 12 14 10 20
-3 6 -9 7 -18 2z"/>
<path d="M7963 1449 c-18 -35 -35 -80 -38 -99 -4 -28 3 -18 35 45 23 44 39 88
38 99 -2 13 -14 -2 -35 -45z"/>
<path d="M7890 1275 c-7 -9 -10 -18 -7 -21 3 -3 10 4 17 15 13 25 8 27 -10 6z"/>
<path d="M3861 1244 c0 -11 3 -14 6 -6 3 7 2 16 -1 19 -3 4 -6 -2 -5 -13z"/>
<path d="M5083 1193 c-18 -6 -16 -38 2 -53 23 -19 31 -8 20 26 -6 17 -15 29
-22 27z"/>
<path d="M3794 629 c-3 -6 -1 -16 5 -22 8 -8 11 -5 11 11 0 24 -5 28 -16 11z"/>
<path d="M3840 410 c0 -5 5 -10 11 -10 5 0 7 5 4 10 -3 6 -8 10 -11 10 -2 0
-4 -4 -4 -10z"/>
<path d="M5005 298 c-10 -26 2 -55 17 -40 8 8 8 18 1 34 -10 21 -12 21 -18 6z"/>
<path d="M3797 143 c-11 -10 -8 -101 3 -108 6 -4 10 17 10 54 0 62 -1 66 -13
54z"/>
</g>
</svg>
